<svg width="412" height="170" viewBox="0 0 412 170" fill="none" xmlns="http://www.w3.org/2000/svg">
<rect x="121" width="170" height="170" rx="85" fill="#E7E7E7"/>
<g opacity="0.3">
<circle cx="250" cy="60" r="5" fill="black"/>
<circle cx="205" cy="60" r="5" fill="black"/>
<path d="M219 94.532C221.123 93.2184 222.816 92.2726 224.08 91.6946C225.343 91.1429 226.942 90.7225 228.877 90.4335C230.839 90.1445 233.553 90 237.02 90C240.487 90 243.202 90.1445 245.163 90.4335C247.152 90.7225 248.805 91.156 250.122 91.734C251.439 92.3383 253.065 93.2709 255 94.532V98C253.226 96.9754 251.761 96.2266 250.606 95.7537C249.477 95.3071 247.878 94.9524 245.809 94.6897C243.739 94.4269 240.81 94.2956 237.02 94.2956C233.231 94.2956 230.288 94.4269 228.191 94.6897C226.095 94.9524 224.483 95.3071 223.354 95.7537C222.225 96.2266 220.774 96.9754 219 98V94.532Z" fill="black"/>
</g>
<path d="M61.0927 170V131.454H0V113.663L41.8781 0H66.2659L24.1415 111.439H61.339L66.5122 53.8663H84.2488V111.439H101V131.454H84.2488V170H61.0927Z" fill="#E7E7E7"/>
<path d="M372.093 170V131.454H311V113.663L352.878 0H377.266L335.141 111.439H372.339L377.512 53.8663H395.249V111.439H412V131.454H395.249V170H372.093Z" fill="#E7E7E7"/>
</svg>
