<svg width="6" height="15" viewBox="0 0 6 15" fill="none" xmlns="http://www.w3.org/2000/svg">
<path d="M1.48495 8.92241C1.48495 8.39081 1.52508 7.97414 1.60535 7.67241C1.699 7.37069 1.8194 7.14799 1.96656 7.00431C2.12709 6.84626 2.36789 6.67385 2.68896 6.48707L3.05017 6.27155C3.34448 6.08477 3.55853 5.91954 3.69231 5.77586C3.82609 5.63218 3.92642 5.41667 3.99331 5.12931C4.0602 4.84195 4.09365 4.42529 4.09365 3.87931C4.09365 3.29023 4.04013 2.85201 3.93311 2.56466C3.83946 2.26293 3.65886 2.0546 3.3913 1.93966C3.13712 1.82471 2.74916 1.76724 2.22742 1.76724C1.57191 1.76724 0.829431 1.83908 0 1.98276V0.344828C0.414716 0.244253 0.882943 0.16523 1.40468 0.107759C1.9398 0.0359197 2.4214 0 2.8495 0C3.98662 0 4.79599 0.287357 5.27759 0.862069C5.7592 1.43678 6 2.36351 6 3.64224C6 4.64799 5.89298 5.4454 5.67893 6.03448C5.47826 6.6092 5.09699 7.0546 4.53512 7.37069L4.21405 7.5431C3.8796 7.72989 3.6388 7.89511 3.49164 8.03879C3.35786 8.18247 3.2709 8.3477 3.23077 8.53448C3.19064 8.7069 3.17057 8.98707 3.17057 9.375V10.7328H1.48495V8.92241ZM1.32441 15V12.8017H3.3311V15H1.32441Z" fill="white"/>
</svg>
