<svg width="24" height="24" viewBox="0 0 24 24" fill="none" xmlns="http://www.w3.org/2000/svg">
<rect width="24" height="24" rx="12" fill="#F2F2F2"/>
<path d="M12 15V14" stroke="#666666" stroke-linecap="round" stroke-linejoin="round"/>
<path d="M11.9997 18.6667C15.6816 18.6667 18.6663 15.6819 18.6663 12C18.6663 8.3181 15.6816 5.33333 11.9997 5.33333C8.31778 5.33333 5.33301 8.3181 5.33301 12C5.33301 15.6819 8.31778 18.6667 11.9997 18.6667Z" stroke="#666666" stroke-linecap="round" stroke-linejoin="round"/>
<path d="M10.0596 10C10.2163 9.55444 10.5257 9.17874 10.9329 8.93942C11.3401 8.7001 11.8188 8.61262 12.2844 8.69247C12.7499 8.77232 13.1721 9.01435 13.4763 9.37568C13.7805 9.73702 13.9469 10.1943 13.9462 10.6667C13.9462 12 11.9462 12.6667 11.9462 12.6667" stroke="#666666" stroke-linecap="round" stroke-linejoin="round"/>
</svg>
