<svg width="55" height="43" viewBox="0 0 55 43" fill="none" xmlns="http://www.w3.org/2000/svg">
<g opacity="0.3">
<circle cx="50" cy="5" r="5" fill="black"/>
<circle cx="5" cy="5" r="5" fill="black"/>
<path d="M19 39.532C21.1232 38.2184 22.8163 37.2726 24.0795 36.6946C25.3427 36.1429 26.9418 35.7225 28.8768 35.4335C30.8387 35.1445 33.5532 35 37.0202 35C40.4871 35 43.2016 35.1445 45.1635 35.4335C47.1523 35.7225 48.8052 36.156 50.1221 36.734C51.439 37.3383 53.0649 38.2709 55 39.532V43C53.2262 41.9754 51.7615 41.2266 50.6058 40.7537C49.477 40.3071 47.8779 39.9524 45.8085 39.6897C43.7391 39.4269 40.8096 39.2956 37.0202 39.2956C33.2307 39.2956 30.2878 39.4269 28.1915 39.6897C26.0952 39.9524 24.4826 40.3071 23.3539 40.7537C22.2251 41.2266 20.7738 41.9754 19 43V39.532Z" fill="black"/>
</g>
</svg>
