<svg width="12" height="12" viewBox="0 0 12 12" fill="none" xmlns="http://www.w3.org/2000/svg">
<g opacity="0.6">
<path d="M5 6.5C5.21473 6.78706 5.48868 7.02459 5.80328 7.19647C6.11787 7.36835 6.46575 7.47056 6.82333 7.49617C7.1809 7.52177 7.53979 7.47018 7.87567 7.34489C8.21155 7.2196 8.51656 7.02353 8.77 6.77L10.27 5.27C10.7254 4.79849 10.9774 4.16699 10.9717 3.5115C10.966 2.856 10.7031 2.22897 10.2395 1.76545C9.77603 1.30193 9.149 1.03901 8.4935 1.03331C7.83801 1.02762 7.20651 1.2796 6.735 1.735L5.875 2.59" stroke="#13548F" stroke-linecap="round" stroke-linejoin="round"/>
<path d="M6.99998 5.49999C6.78525 5.21293 6.5113 4.9754 6.1967 4.80352C5.88211 4.63164 5.53423 4.52943 5.17665 4.50382C4.81908 4.47822 4.46019 4.52981 4.12431 4.6551C3.78843 4.78039 3.48342 4.97646 3.22998 5.22999L1.72998 6.72999C1.27458 7.2015 1.0226 7.833 1.02829 8.48849C1.03399 9.14399 1.29691 9.77102 1.76043 10.2345C2.22395 10.6981 2.85098 10.961 3.50648 10.9667C4.16197 10.9724 4.79347 10.7204 5.26498 10.265L6.11998 9.40999" stroke="#13548F" stroke-linecap="round" stroke-linejoin="round"/>
</g>
</svg>
