<?xml version="1.0" encoding="utf-8"?>
<!-- Generator: Adobe Illustrator 23.0.4, SVG Export Plug-In . SVG Version: 6.00 Build 0)  -->
<svg version="1.1" id="Layer_1" xmlns="http://www.w3.org/2000/svg" xmlns:xlink="http://www.w3.org/1999/xlink" x="0px" y="0px"
	 viewBox="0 0 55.7 23.5" style="enable-background:new 0 0 55.7 23.5;" xml:space="preserve">
<path d="M53.6,4.2c1.2,0,2.1-1,2.1-2.1S54.7,0,53.6,0c-1.2,0-2.1,1-2.1,2.1S52.4,4.2,53.6,4.2z M53.6,19.3c-1.2,0-2.1,1-2.1,2.1
	c0,1.2,1,2.1,2.1,2.1c1.2,0,2.1-1,2.1-2.1C55.7,20.2,54.8,19.3,53.6,19.3z M53.6,12.8c-1.2,0-2.1,1-2.1,2.1s1,2.1,2.1,2.1
	c1.2,0,2.1-1,2.1-2.1S54.8,12.8,53.6,12.8z M53.6,6.4c-1.2,0-2.1,1-2.1,2.1c0,1.2,1,2.1,2.1,2.1c1.2,0,2.1-1,2.1-2.1
	S54.8,6.4,53.6,6.4z M47.2,0c-1.2,0-2.1,1-2.1,2.1s1,2.1,2.1,2.1c1.2,0,2.1-1,2.1-2.1S48.3,0,47.2,0z M47.2,19.3
	c-1.2,0-2.1,1-2.1,2.1c0,1.2,1,2.1,2.1,2.1c1.2,0,2.1-1,2.1-2.1C49.3,20.2,48.3,19.3,47.2,19.3z M47.2,12.8c-1.2,0-2.1,1-2.1,2.1
	s1,2.1,2.1,2.1c1.2,0,2.1-1,2.1-2.1S48.3,12.8,47.2,12.8z M47.2,6.4c-1.2,0-2.1,1-2.1,2.1c0,1.2,1,2.1,2.1,2.1c1.2,0,2.1-1,2.1-2.1
	S48.3,6.4,47.2,6.4z M40.7,0c-1.2,0-2.1,1-2.1,2.1s1,2.1,2.1,2.1c1.2,0,2.1-1,2.1-2.1S41.9,0,40.7,0z M40.7,19.3
	c-1.2,0-2.1,1-2.1,2.1c0,1.2,1,2.1,2.1,2.1c1.2,0,2.1-1,2.1-2.1C42.9,20.2,41.9,19.3,40.7,19.3z M40.7,12.8c-1.2,0-2.1,1-2.1,2.1
	s1,2.1,2.1,2.1c1.2,0,2.1-1,2.1-2.1S41.9,12.8,40.7,12.8z M40.7,6.4c-1.2,0-2.1,1-2.1,2.1c0,1.2,1,2.1,2.1,2.1c1.2,0,2.1-1,2.1-2.1
	C42.9,7.4,41.9,6.4,40.7,6.4z M34.3,0c-1.2,0-2.1,1-2.1,2.1s1,2.1,2.1,2.1c1.2,0,2.1-1,2.1-2.1S35.5,0,34.3,0z M34.3,19.3
	c-1.2,0-2.1,1-2.1,2.1c0,1.2,1,2.1,2.1,2.1c1.2,0,2.1-1,2.1-2.1C36.4,20.2,35.5,19.3,34.3,19.3z M34.3,12.8c-1.2,0-2.1,1-2.1,2.1
	s1,2.1,2.1,2.1c1.2,0,2.1-1,2.1-2.1S35.5,12.8,34.3,12.8z M34.3,6.4c-1.2,0-2.1,1-2.1,2.1c0,1.2,1,2.1,2.1,2.1c1.2,0,2.1-1,2.1-2.1
	S35.5,6.4,34.3,6.4z M27.9,0c-1.2,0-2.1,1-2.1,2.1s1,2.1,2.1,2.1c1.2,0,2.1-1,2.1-2.1S29,0,27.9,0z M27.9,19.3c-1.2,0-2.1,1-2.1,2.1
	c0,1.2,1,2.1,2.1,2.1c1.2,0,2.1-1,2.1-2.1C30,20.2,29,19.3,27.9,19.3z M27.9,12.8c-1.2,0-2.1,1-2.1,2.1s1,2.1,2.1,2.1
	c1.2,0,2.1-1,2.1-2.1S29,12.8,27.9,12.8z M27.9,6.4c-1.2,0-2.1,1-2.1,2.1c0,1.2,1,2.1,2.1,2.1c1.2,0,2.1-1,2.1-2.1S29,6.4,27.9,6.4z
	 M21.4,0c-1.2,0-2.1,1-2.1,2.1s1,2.1,2.1,2.1c1.2,0,2.1-1,2.1-2.1S22.6,0,21.4,0z M21.4,19.3c-1.2,0-2.1,1-2.1,2.1
	c0,1.2,1,2.1,2.1,2.1c1.2,0,2.1-1,2.1-2.1C23.6,20.2,22.6,19.3,21.4,19.3z M21.4,12.8c-1.2,0-2.1,1-2.1,2.1s1,2.1,2.1,2.1
	c1.2,0,2.1-1,2.1-2.1S22.6,12.8,21.4,12.8z M21.4,6.4c-1.2,0-2.1,1-2.1,2.1c0,1.2,1,2.1,2.1,2.1c1.2,0,2.1-1,2.1-2.1
	C23.6,7.4,22.6,6.4,21.4,6.4z M15,0c-1.2,0-2.1,1-2.1,2.1s1,2.1,2.1,2.1c1.2,0,2.1-1,2.1-2.1S16.2,0,15,0z M15,19.3
	c-1.2,0-2.1,1-2.1,2.1c0,1.2,1,2.1,2.1,2.1c1.2,0,2.1-1,2.1-2.1C17.1,20.2,16.2,19.3,15,19.3z M15,12.8c-1.2,0-2.1,1-2.1,2.1
	s1,2.1,2.1,2.1c1.2,0,2.1-1,2.1-2.1S16.2,12.8,15,12.8z M15,6.4c-1.2,0-2.1,1-2.1,2.1c0,1.2,1,2.1,2.1,2.1c1.2,0,2.1-1,2.1-2.1
	S16.2,6.4,15,6.4z M8.6,0C7.4,0,6.5,1,6.5,2.1s1,2.1,2.1,2.1c1.2,0,2.1-1,2.1-2.1S9.7,0,8.6,0z M8.6,19.3c-1.2,0-2.1,1-2.1,2.1
	c0,1.2,1,2.1,2.1,2.1c1.2,0,2.1-1,2.1-2.1C10.7,20.2,9.7,19.3,8.6,19.3z M8.6,12.8c-1.2,0-2.1,1-2.1,2.1s1,2.1,2.1,2.1
	c1.2,0,2.1-1,2.1-2.1S9.7,12.8,8.6,12.8z M8.6,6.4c-1.2,0-2.1,1-2.1,2.1c0,1.2,1,2.1,2.1,2.1c1.2,0,2.1-1,2.1-2.1S9.7,6.4,8.6,6.4z
	 M2.1,0C0.9,0,0,1,0,2.1s1,2.1,2.1,2.1c1.2,0,2.1-1,2.1-2.1S3.3,0,2.1,0z M2.1,19.3c-1.2,0-2.1,1-2.1,2.1c0,1.2,1,2.1,2.1,2.1
	c1.2,0,2.1-1,2.1-2.1C4.3,20.2,3.3,19.3,2.1,19.3z M2.1,12.8c-1.2,0-2.1,1-2.1,2.1S1,17,2.1,17c1.2,0,2.1-1,2.1-2.1
	S3.3,12.8,2.1,12.8z M2.1,6.4C0.9,6.4,0,7.4,0,8.5c0,1.2,1,2.1,2.1,2.1c1.2,0,2.1-1,2.1-2.1C4.3,7.4,3.3,6.4,2.1,6.4z"/>
</svg>
