<svg version="1.1" id="Layer_3" xmlns="http://www.w3.org/2000/svg" x="0" y="0" viewBox="0 0 711 94.4" xml:space="preserve"><path class="st0" d="M50.9 25.3c0-4.2-3.4-7.6-7.6-7.6-4.2 0-7.6 3.4-7.6 7.6S39 33 43.2 33s7.7-3.5 7.7-7.7z"/><path class="st0" d="M70.9 5.8c-.1-.1 0 0 0 0l-1.3 1.8s.1 0 .1.1c3 1.9 5.7 4.1 8.1 6.7 1.3 1.4 2.5 2.8 3.6 4.3v.1c0 10.5-16 19-35.7 19-5.7 0-11-.7-15.8-2 3.3-17.6 12-31 22.7-34.4 3.6.5 7.1 1.4 10.3 2.7 0 0 1.1-1.8 1-1.9-.1-.1-2.8-1.1-4.2-1.5-4.2-1.2-8.6-1.9-13.1-1.9-2.8 0-5.5.3-8.1.7C16.6 3.4 0 22.4 0 45.4c0 17.3 9.4 32.4 23.4 40.4 4.9 2.8 10.3 4.7 16.1 5.6 2.3.3 4.6.5 7 .5 15.9 0 29.9-8 38.3-20.1C90 64.3 93 55.2 93 45.4 93 28.6 84.2 14 70.9 5.8zM5.1 43.2c0-2.5.2-5 .7-7.4.7 3.4 2.6 6.5 5.4 9.2-.1 1.3-.1 2.6-.1 4 0 7.4 1.3 14.5 3.7 21-6.1-7.3-9.7-16.6-9.7-26.8zm9.6-15c-1.9-1.8-3.3-3.8-4-5.8 4.7-8.2 12.1-14.7 21-18.2-7.6 5.9-13.5 14.2-17 24zm39.6 56.6c-4-3-6-14.5-6-22.7 0-1.3.1-2.5.2-3.7h-.1c-5.9 0-11.6-.6-16.9-1.7C31 65.2 34 76.9 36.6 84c-.5-.1-1.1-.3-1.6-.4-3.8-8.1-6.1-18.2-6.4-29.3 5.7 1.5 12.1 2.3 18.8 2.1 22-.7 39.6-11.5 40.4-24.4 1 3.6 1.6 7.4 1.6 11.4 0 4.8-.8 9.5-2.3 13.8-5.1 14.2-17.5 25-32.8 27.6zM552 15.8c-2.5-1.7-5.2-2.4-8.2-2.4-7.4 0-12.7 5.9-12.7 13.2 0 7.4 5.2 13.2 12.7 13.2 2.8 0 5.7-1.1 8.2-2.5l1.6 2.8c-2.9 1.7-6.4 3-9.8 3-9.4 0-16.9-6.2-16.9-16.6 0-9.8 7.5-16.6 16.9-16.6 3.8 0 6.8.9 9.9 2.6l-1.7 3.3zM560.9 30.6v.8c0 4.8 1.8 9.1 6.5 9.1 2.6 0 4.6-1.5 6.5-3.3l1.8 2c-2.3 2.3-5.3 4.1-8.7 4.1-6.3 0-10-4.6-10-12.1 0-6.3 4.3-12.1 10.5-12.1s8.8 4.7 8.8 10.9v.7h-15.4zm11.7-2.5c0-3.3-1.4-6.3-5.1-6.3-3.4 0-5.7 3.2-6.3 6.3h11.4zM581.7 38.5c1.3.9 3.1 1.9 5.1 1.9 2 0 4.5-1.1 4.5-3.7 0-5.7-10.6-3.2-10.6-10.9 0-4.3 3.5-6.9 7.7-6.9 2.6 0 5 .8 6.7 1.9l-1.7 2.3c-1.3-.7-2.8-1.5-4.4-1.5-2.7 0-4.6 1.1-4.6 3.8 0 4.9 10.6 2.9 10.6 10.7 0 4.4-3.8 6.9-7.6 6.9-2.7 0-5.1-.9-7.2-2.3l1.5-2.2zM600.7 8.1h3.6l-.2 22.6 11.8-12.2 2.4 2.4-9.7 9.3 9.9 11-2.9 2.3L604 30.7v11.9h-3.6l.3-34.5zM643.4 41.6c-1.3 1-2.7 1.7-4.3 1.7-2.1 0-3.2-1.9-3.4-3.8-1.7 2.2-4 3.8-6.9 3.8-4 0-6.6-2.8-6.6-6.6 0-6.5 8.4-8 13.4-8.2 0-1 .1-1.9.1-2.9 0-2-1.1-3.4-3.5-3.4-1.8 0-3.3.6-6.6 3.2l-1.5-2.4c4.6-3 6.1-3.8 9.4-3.8 3.8 0 5.8 2.3 5.8 5.8 0 4.3-.4 8.3-.4 12.4 0 1.7.2 3.3 1.7 3.3.8 0 1.3-.4 1.9-.8l.9 1.7zm-7.8-11c-6.4.8-9.7 2-9.7 5.9 0 2.6 1.6 3.9 4.1 3.9 2.3 0 4-1.6 5.4-3.4l.2-6.4zm-.3-19.3h4.5l-5.5 5.9h-2.7l3.7-5.9zM530.3 59.7h3.8v4.5l.1.1c.8-2.1 3-5.2 6.3-5.2.8 0 1.5.1 2 .3l-1.1 3.5c-.4-.1-.9-.2-1.4-.2-1.5 0-4 1.2-5.9 4.9l-.2 15h-3.7l.1-22.9zM547.9 70.6v.8c0 4.8 1.8 9.1 6.5 9.1 2.6 0 4.6-1.5 6.5-3.3l1.8 2c-2.3 2.3-5.3 4.1-8.7 4.1-6.3 0-10-4.6-10-12.1 0-6.3 4.3-12.1 10.5-12.1s8.8 4.7 8.8 10.9v.7h-15.4zm11.7-2.5c0-3.3-1.4-6.3-5.1-6.3-3.5 0-5.7 3.2-6.3 6.3h11.4zM569.1 59.7h3.7v3.1h.1c1.2-2 3.9-3.7 7.1-3.7 3.9 0 9.2 2.9 9.2 12 0 6.2-4.1 12.2-10 12.2-3 0-5.3-1.4-6.5-3h-.1l-.1 13.9h-3.7l.3-34.5zm3.6 16.8c1.6 2.5 3.5 3.7 5.8 3.7 4 0 6.9-4.5 6.9-9.1 0-6.2-2.9-9.1-6.1-9.1-2.9 0-5.3 2.3-6.4 4.2l-.2 10.3zM595.1 59.7h3.7l-.1 10.3v6.3c0 2.5 1.7 3.6 4.2 3.6 2.4 0 4.5-1.4 6.9-4.2l.2-16h3.7l-.2 22.9h-3.7l.1-3.7h-.1c-1.9 2.8-5.1 4.3-7.8 4.3-5.3 0-7-2.7-7-6.9v-5.2l.1-11.4zM620.9 48.1h3.7l-.1 14.7h.1c1.2-2 3.9-3.7 7.1-3.7 3.9 0 9.2 2.9 9.2 12 0 6.2-4.1 12.2-10 12.2-3 0-5.3-1.4-6.5-3h-.1l-.1 2.3h-3.5l.2-34.5zm3.4 28.4c1.6 2.5 3.5 3.7 5.8 3.7 4 0 6.9-4.5 6.9-9.1 0-6.2-2.9-9.1-6.1-9.1-2.9 0-5.3 2.3-6.4 4.2l-.2 10.3zM646.7 48.1h3.7l-.3 34.5h-3.7l.3-34.5zM657.1 50.8h4v4.1h-4v-4.1zm.2 8.9h3.7l-.2 22.9h-3.7l.2-22.9zM668.2 48.1h3.6l-.2 22.6 11.8-12.2 2.4 2.4-9.7 9.3 9.9 11-2.9 2.3-11.6-12.8-.1 11.8H668l.2-34.4zM711 81.6c-1.3 1-2.7 1.7-4.3 1.7-2.1 0-3.2-1.9-3.4-3.8-1.7 2.2-4 3.8-6.9 3.8-4 0-6.6-2.8-6.6-6.6 0-6.5 8.4-8 13.4-8.2 0-1 .1-1.9.1-2.9 0-2-1.1-3.4-3.5-3.4-1.8 0-3.3.6-6.6 3.2l-1.5-2.4c4.6-3 6.1-3.8 9.4-3.8 3.8 0 5.8 2.3 5.8 5.8 0 4.3-.4 8.3-.4 12.4 0 1.7.2 3.3 1.7 3.3.8 0 1.3-.4 1.9-.8l.9 1.7zm-7.8-11c-6.4.8-9.7 2-9.7 5.9 0 2.6 1.6 3.9 4.1 3.9 2.3 0 4-1.6 5.4-3.4l.2-6.4zM504.9 0h2.5v94.4h-2.5zM535.9.3h3.6l3.2 4.4 3.1-4.4h3.6l-4.6 6.6h-4.2L535.9.3zM113.9 14.6h-9.1V9.5h24v5.1h-8.9l-.2 27.2h-6l.2-27.2zM134.9 9.5h10.2c7.8 0 11 4.2 11 9.4 0 4.1-2.5 7.1-6.3 8.4l9.2 12.1-5.3 3.2-9-12.5c-.6-.8-1.3-1.1-2.2-1.1h-1.9v13h-6.1l.4-32.5zm9.7 14.5c1.8 0 5.3-.8 5.3-5 0-3.1-2.4-4.7-5.5-4.7H141l-.1 9.7h3.7zM168.5 42.5l-5.6-1.7 12.4-31.3h5.5l11.6 31.3-5.8 1.7-3.2-9.3h-11.3l-3.6 9.3zm9.5-26.7l-4.2 12.6h7.9L178 15.8zM198.2 10.5l5.6-1.7 15.1 24.8h.1l-.4-24.1h6l-.3 31.3-6 1.7-14.7-24.6-.1.1.5 23.9h-6l.2-31.4zM234.6 35.4c1.5 1 3.9 2.2 5.7 2.2 3.3 0 5.2-2.1 5.2-4.7 0-6.5-13.3-3.7-13.3-14.7 0-5.3 4.3-9.4 10.8-9.4 3.2 0 6.4 1.1 9.1 2.7l-2.5 4.3c-2-1.1-3.8-2.2-6.1-2.2-2.7 0-5.3 1.4-5.3 4.3 0 6.4 13.6 4.3 13.6 14.7 0 5.5-4.4 9.8-10.7 9.8-3.1 0-6.1-.9-8.8-2.5l2.3-4.5zM260.1 9.5h9.1c8.5 0 11.8 3.8 11.8 9.9 0 6.6-5.5 9.8-11.8 9.8h-3.3v12.7h-6.1l.3-32.4zm8.9 14.8c3.2 0 5.7-2 5.7-5 0-2-1.1-5-5.5-5H266l-.1 10h3.1zM287.2 42.5l-5.6-1.7L294 9.5h5.5l11.6 31.3-5.8 1.7-3.2-9.3h-11.3l-3.6 9.3zm9.5-26.7l-4.2 12.6h7.9l-3.7-12.6zM318.2 9.5h10.2c7.8 0 11 4.2 11 9.4 0 4.1-2.5 7.1-6.3 8.4l9.2 12.1-5.3 3.2-9-12.5c-.6-.8-1.3-1.1-2.2-1.1H324v13h-6.1l.3-32.5zm9.6 14.5c1.8 0 5.3-.8 5.3-5 0-3.1-2.4-4.7-5.5-4.7h-3.5L324 24h3.8zM349.6 9.5h17.3v5.1h-11.3l-.1 8.3h11.2v4.9h-11.3v8.9h11.5v5.1h-17.6l.3-32.3zM375.5 10.5l5.6-1.7 15.1 24.8h.1l-.4-24.1h6l-.3 31.3-6 1.7-14.7-24.6-.1.1.5 23.9h-6l.2-31.4zM435.4 39.4c-3 2.1-6.6 3.1-10.3 3.1-9.6 0-16.8-7.1-16.8-16.7 0-10 6.9-16.9 16.6-16.9 3.8 0 7.6 1.3 10.6 3.7l-2.6 4.2c-2-1.7-5.2-2.8-7.8-2.8-6.3 0-10.5 5.1-10.5 11.5 0 6.2 4.3 11.9 10.3 11.9 4.1 0 6.2-1 8.1-2.1l2.4 4.1zM450.1 28.4l-10.7-16.5 5.5-3.1 8.5 13.8 8.8-13.8 5.3 3-11 16.4-.2 13.6H450l.1-13.4zM113.2 50h6l-.3 32.4h-6l.3-32.4zM126.6 51l5.6-1.7 15.1 24.8h.1L147 50h6l-.3 31.3-6 1.7L132 58.3l-.1.1.5 23.9h-6l.2-31.3zM167.1 55.1H158V50h24v5.1h-8.9l-.2 27.2h-6l.2-27.2zM187.3 50h17.3v5.1h-11.3l-.1 8.3h11.2v4.9h-11.3v8.9h11.5v5.1H187l.3-32.3zM212.6 50h10.2c7.8 0 11 4.2 11 9.4 0 4.1-2.5 7.1-6.3 8.4l9.2 12.1-5.3 3.2-9-12.5c-.6-.8-1.3-1.1-2.2-1.1h-1.9v13h-6.1l.4-32.5zm9.6 14.5c1.8 0 5.3-.8 5.3-5 0-3.1-2.4-4.7-5.5-4.7h-3.5l-.1 9.7h3.8zM242.1 51l5.6-1.7 15.1 24.8h.1l-.4-24.1h6l-.3 31.3-6 1.7-14.7-24.6-.1.1.5 23.9h-6l.2-31.4zM278.8 83l-5.6-1.7L285.6 50h5.5l11.6 31.3-5.8 1.7-3.2-9.3h-11.3l-3.6 9.3zm9.5-26.8l-4.2 12.6h7.9l-3.7-12.6zM310.4 55.1h-9.1V50h24v5.1h-8.9l-.2 27.2h-6l.2-27.2zM331 50h6l-.3 32.4h-6L331 50zM359.4 49.3c10.5 0 17.4 7.4 17.4 16.8s-7.5 16.8-17.4 16.8c-9.8 0-17.4-7-17.4-16.8.1-9.4 7.8-16.8 17.4-16.8zm0 28.8c6.7 0 11.1-5.6 11.1-12 0-6.9-4.4-12-11.1-12-5.4 0-11.1 4.4-11.1 12 0 7.1 4.4 12 11.1 12zM381.9 51l5.6-1.7 15.1 24.8h.1l-.4-24.1h6l-.3 31.3-6 1.7-14.7-24.6-.1.1.5 23.9h-6l.2-31.4zM418.3 83l-5.6-1.7L425.1 50h5.5l11.6 31.3-5.8 1.7-3.2-9.3h-11.3l-3.6 9.3zm9.5-26.8l-4.2 12.6h7.9l-3.7-12.6zM448.8 50h6l-.3 27.2h12.7v5.1h-18.7l.3-32.3z"/></svg>
