<svg xmlns="http://www.w3.org/2000/svg" width="100" height="30" viewBox="0 0 447.15 131.37"><defs><style>.cls-1{fill:#6e6f72;}.cls-2{fill:#13cdf0;}.cls-3{fill:#0ca8de;}</style></defs><title>logo</title><g id="text"><path class="cls-1" d="M397.91,265.76h7a6.66,6.66,0,0,1,6.64,6.64v4.1H397.91Zm0,15.23h7a6.68,6.68,0,0,1,6.64,6.64V333H397.91Z" transform="translate(-186.96 -233.91)"/><path class="cls-1" d="M462.07,333H448.6V299.74q0-4.68-2.84-6.83a10.23,10.23,0,0,0-6.34-2.15,9.84,9.84,0,0,0-6.25,2.15q-2.75,2.14-2.74,6.83V333H416.76V302.48q0-13.29,6.93-17.77A30.26,30.26,0,0,1,439,279.82a39.67,39.67,0,0,1,8.79,1,18.43,18.43,0,0,1,7.81,3.91,17.17,17.17,0,0,1,6.93-3.62,39.14,39.14,0,0,1,8.3-1.27,29.43,29.43,0,0,1,15.82,4.49q7.23,4.5,7.23,18.17V333h-6.84a6.37,6.37,0,0,1-6.64-6.64V299.74q0-4.68-2.83-6.83a10.44,10.44,0,0,0-12.69,0q-2.84,2.14-2.84,6.83V333Z" transform="translate(-186.96 -233.91)"/><path class="cls-1" d="M511.9,345.45a6.68,6.68,0,0,1-6.64,6.64h-6.64V303.46q0-13.68,8-18.66a32.3,32.3,0,0,1,17.38-5,28.05,28.05,0,0,1,9.86,1.86,18.43,18.43,0,0,1,7.91,5.37q5.87,7.62,5.86,19.53,0,12.3-5.86,19.92a18.3,18.3,0,0,1-15,7.42,19.89,19.89,0,0,1-8.6-1.75,14.64,14.64,0,0,1-6.25-6.06Zm22.27-38.28q0-7.62-2.93-11.72a9.7,9.7,0,0,0-8.4-4.1,9.48,9.48,0,0,0-8.2,4.1q-2.75,3.71-2.74,11.72,0,7.43,2.93,11.13a9.7,9.7,0,0,0,8.4,4.1,9.35,9.35,0,0,0,8-4.1Q534.17,314.19,534.17,307.17Z" transform="translate(-186.96 -233.91)"/><path class="cls-1" d="M589.12,316.93h9.77a21.32,21.32,0,0,1-8.21,12.5q-6,4.5-15.23,4.49-11.13,0-17.38-7.22-6.26-7-6.25-20.12,0-12.49,6-19.53,6.25-7.23,17.38-7.23,11.73,0,18.17,7,6.24,7.23,6.25,20.12v2.15a3.36,3.36,0,0,1-.2,1.37H565.68c.13,4,1.11,7,2.93,9s4.23,3.13,7.62,3.13a11.06,11.06,0,0,0,5.66-1.37,2.76,2.76,0,0,0,1.08-.69l1.07-1.07a4.25,4.25,0,0,1,1.47-1.56A5.81,5.81,0,0,1,589.12,316.93ZM565.68,301.7H585.6c-.26-3.52-1.17-6.12-2.73-7.82s-4.1-2.73-7.23-2.73a9.53,9.53,0,0,0-7,2.73C566.79,295.71,565.81,298.31,565.68,301.7Z" transform="translate(-186.96 -233.91)"/><path class="cls-1" d="M604.82,333v-25.2A32.1,32.1,0,0,1,607.06,295a21.23,21.23,0,0,1,6.15-8.3,24.22,24.22,0,0,1,8.7-4.3A38.57,38.57,0,0,1,632.16,281h2v13.87h-4.49q-5.67,0-8.4,2.74t-2.73,8.59V333Z" transform="translate(-186.96 -233.91)"/></g><g id="logo"><path class="cls-2" d="M380.84,298.29a62.7,62.7,0,0,0-62.29-58c-.71,0-1.43,0-2.14,0a42.52,42.52,0,0,1,5,8,54.51,54.51,0,0,1,1,108.81c-1.31.09-2.64.14-3.95.14a54.31,54.31,0,0,1-53.61-44.88,31.38,31.38,0,0,0,1.8-10.54,31.78,31.78,0,0,0-63.56-.22v2.07H214l0-2a20.84,20.84,0,1,1,20.84,21h-.34l-2.13-.07v11l2,0h.44a31.6,31.6,0,0,0,24.27-11.28,62.4,62.4,0,0,0,59.32,42.92c1.5,0,3-.06,4.52-.17a62.5,62.5,0,0,0,57.9-66.82Z" transform="translate(-186.96 -233.91)"/><path class="cls-3" d="M324.1,255.66a43,43,0,0,1,1.44,11c0,.06,0,.12,0,.18a36.57,36.57,0,1,1-43.62,35.88c0-.22,0-.44,0-.66h0a47.44,47.44,0,0,0-76.34-37.62l-.05-.07a47.43,47.43,0,0,0,55.84,76.66,47.58,47.58,0,0,1-5-9.8,36.56,36.56,0,0,1-58.55-29.5h.08a36.57,36.57,0,0,1,73.14.33h0c0,.22,0,.44,0,.66a47.44,47.44,0,1,0,53.06-47.1Z" transform="translate(-186.96 -233.91)"/><path class="cls-3" d="M259.65,257.06a25.39,25.39,0,1,1,25.58,35.09,24.38,24.38,0,0,1,.61,4.71c.09.92.17,1.85.21,2.79a32.94,32.94,0,1,0-33.26-45.8A53,53,0,0,1,259.65,257.06Z" transform="translate(-186.96 -233.91)"/><path class="cls-2" d="M269.39,264.12l.31.05a14.22,14.22,0,1,1,11.8,16.4l-.12,0q1,2.15,1.79,4.41A18.45,18.45,0,1,0,266,261.29Q267.78,262.64,269.39,264.12Z" transform="translate(-186.96 -233.91)"/><path class="cls-2" d="M324.5,275.62a42.33,42.33,0,0,1-33.35,32.8,27.79,27.79,0,1,0,33.35-32.8Z" transform="translate(-186.96 -233.91)"/></g></svg>
