<svg xmlns="http://www.w3.org/2000/svg" viewBox="0 0 259.3 27.7"><path d="M85.5 3.2l-2.8.4v18.1h-1.5L68.8 6.3v13.3l3.4.4v1.5h-8v-1.6l2.8-.4V4l-.4-.5-2-.2V1.8h5.9L81 15.1V3.7l-3.5-.4V1.8h8v1.4zM100.7 19.5c-.4.8-.9 1.4-1.4 1.7s-1.1.5-1.9.5-1.5-.2-2-.5-.9-.7-1.1-1.3c-.7.6-1.3 1.1-2 1.4-.6.3-1.4.5-2.4.5-1.2 0-2.2-.3-2.9-.9s-1.1-1.5-1.1-2.7c0-.5.1-.9.2-1.4.1-.4.4-.9.8-1.3s1-.8 1.7-1.2 1.6-.8 2.8-1.2c.3-.1.7-.2 1.2-.4.5-.1.9-.3 1.4-.4v-.9c0-1.3-.2-2.2-.6-2.7s-1-.8-2-.8h-1l-.2 1.7c-.1.8-.3 1.4-.7 1.7-.4.4-.8.6-1.4.6-.5 0-.9-.1-1.2-.4s-.5-.6-.6-1.1c.1-1.2.8-2.2 1.9-2.9 1.1-.8 2.6-1.2 4.6-1.2.9 0 1.7.1 2.4.3s1.2.6 1.6 1c.4.5.7 1.1.9 1.9s.3 1.7.3 2.8v6.2c0 .3.1.6.2.8s.3.3.6.3c.2 0 .4-.1.5-.2l.4-.4.1-.2.9.7zM94 13.6c-.4.1-.7.2-1.1.3l-.9.3c-.9.3-1.5.8-1.8 1.3-.3.5-.5 1.1-.5 1.7 0 .4.1.7.2 1 .1.2.2.4.4.6.4.4 1 .6 1.7.6.3 0 .6-.1.9-.2s.7-.3 1.1-.6v-5zM109.7 12.5c.8.3 1.4.6 2 .9.5.3.9.7 1.2 1.1s.5.8.6 1.2c.1.4.2.9.2 1.4 0 .7-.2 1.4-.5 1.9-.3.6-.7 1.1-1.3 1.5s-1.2.7-2 1c-.8.2-1.7.3-2.6.3-1 0-2-.1-2.7-.4-.8-.2-1.6-.6-2.4-1.1v-3.4h2.3l.4 2.6c.5.3.9.4 1.3.6.4.1.8.2 1.2.2 1 0 1.7-.2 2.1-.5.5-.3.7-.8.7-1.5 0-.3 0-.5-.1-.7s-.2-.4-.5-.6c-.2-.2-.5-.4-.9-.5-.4-.2-.8-.4-1.4-.6l-1.4-.5c-1.2-.5-2.1-1.1-2.7-1.8s-.9-1.6-.9-2.7c0-1.3.5-2.4 1.5-3.2s2.5-1.2 4.6-1.2c.9 0 1.7.1 2.4.3s1.4.5 2.2.8l-.2 3.3h-2.3l-.4-2.5c-.3-.1-.5-.2-.8-.3s-.6-.1-1-.1c-.7 0-1.3.2-1.7.5s-.7.8-.7 1.4c0 .2 0 .4.1.6s.2.4.5.6c.2.2.5.4.9.5s.9.4 1.5.6l.8.3zM123.8 20.1v1.3h-7.7v-1.3l1.8-.4v-2.4-3.7-2.1c0-.5 0-1.1-.1-1.7l-2-.3V8.4l5.8-1.9.4.3-.1 4.3v8.7l1.9.3zM130.8 8.4c.6-.6 1.3-1.1 2-1.4.7-.3 1.5-.5 2.5-.5.8 0 1.6.2 2.4.5.7.3 1.4.8 1.9 1.4s.9 1.4 1.2 2.4c.3 1 .5 2.1.5 3.3s-.2 2.3-.5 3.2c-.3.9-.8 1.8-1.4 2.4-.6.6-1.3 1.2-2 1.5-.8.4-1.6.5-2.5.5-.8 0-1.5-.1-2.1-.4-.6-.2-1.2-.6-1.7-1.1V26l2.2.4v1.3h-8.1v-1.3l1.8-.4v-2.5-10.4V12v-.9-.8-.8l-2-.3V8.1l5.4-1.9.4.3v1.9zm.3 10.2c.4.3.8.5 1.2.7s.8.3 1.3.3c.9 0 1.7-.4 2.3-1.3s1-2.2 1-4.1c0-1.8-.3-3.2-.8-4.1-.6-.9-1.3-1.3-2.3-1.3-.5 0-.9.1-1.4.3s-.9.4-1.3.7v8.8zM150.8 6.4c1 0 2 .2 2.9.5s1.7.9 2.4 1.5c.7.7 1.3 1.5 1.7 2.4.4 1 .6 2 .6 3.2s-.2 2.3-.6 3.2c-.4.9-.9 1.7-1.6 2.4-.7.7-1.5 1.2-2.4 1.5-.9.4-1.9.5-3 .5s-2.1-.2-3-.5-1.7-.9-2.4-1.5c-.7-.7-1.2-1.5-1.6-2.4-.4-.9-.6-2-.6-3.2s.2-2.3.6-3.2c.4-.9 1-1.8 1.7-2.4.7-.7 1.5-1.2 2.4-1.5s1.9-.5 2.9-.5zm0 1.5c-2.1 0-3.2 2.1-3.2 6.2 0 2.1.3 3.7.8 4.7s1.3 1.5 2.4 1.5c1.1 0 1.8-.5 2.4-1.5.5-1 .8-2.6.8-4.7-.1-4.1-1.1-6.2-3.2-6.2zM167 20.1v1.3h-7.6v-1.3l1.8-.4v-2.3V2.6l-2.2-.3V1.1l6-1.4.4.2-.1 4.3V19.6l1.7.5zM177.1 20.1v1.3h-7.7v-1.3l1.8-.4v-2.4-3.7-2.1c0-.5 0-1.1-.1-1.7l-2-.3V8.4l5.8-1.9.4.3-.1 4.3v8.7l1.9.3zM188.5 19.6c-.4.6-.9 1.1-1.6 1.5s-1.6.6-2.7.6c-1.2 0-2.2-.3-2.9-.9s-1.1-1.5-1.1-2.8v-1.6-7.5h-2V7.3l2.4-.3.8-4.2h2.9V7h3.4v1.9h-3.4v8.2c0 .7.1 1.3.4 1.6s.7.5 1.1.5c.2 0 .5 0 .8-.1s.6-.3 1-.6l.9 1.1zM197.9 20.1v1.3h-7.7v-1.3l1.8-.4v-2.4-3.7-2.1c0-.5 0-1.1-.1-1.7l-2-.3V8.4l5.8-1.9.5.3-.1 4.3v8.7l1.8.3zM212.4 17.8c-.4 1.3-1.1 2.3-2.2 3s-2.4 1-3.9 1c-1.1 0-2.1-.2-3-.5s-1.7-.8-2.3-1.5-1.1-1.4-1.5-2.4c-.3-.9-.5-2-.5-3.3 0-1.2.2-2.3.6-3.2.4-1 1-1.8 1.7-2.4s1.5-1.2 2.4-1.5 1.9-.5 3-.5c.8 0 1.5.1 2.2.3s1.3.5 1.8.9.9.8 1.2 1.3.4 1.1.4 1.7c-.2 1-.8 1.4-1.8 1.4-.6 0-1-.2-1.4-.6s-.6-1-.7-1.9l-.1-1.6c-.2 0-.3-.1-.5-.1h-.5c-.6 0-1.1.1-1.6.4s-.9.6-1.3 1.1-.7 1.1-.9 1.8-.3 1.6-.3 2.5c0 2 .4 3.4 1.2 4.4s1.9 1.4 3.1 1.4c.8 0 1.5-.2 2.1-.6s1.1-.9 1.5-1.7l1.3.6zM222.1 20.1v1.3h-7.7v-1.3l1.8-.4v-2.4-3.7-2.1c0-.5 0-1.1-.1-1.7l-2-.3V8.4l5.8-1.9.5.3-.1 4.3v8.7l1.8.3zM245.4 17.8c-.4 1.3-1.1 2.3-2.2 3s-2.4 1-3.9 1c-1.1 0-2.1-.2-3-.5s-1.7-.8-2.3-1.5-1.1-1.4-1.5-2.4c-.3-.9-.5-2-.5-3.3 0-1.2.2-2.3.6-3.2.4-1 1-1.8 1.7-2.4s1.5-1.2 2.4-1.5 1.9-.5 3-.5c.8 0 1.5.1 2.2.3s1.3.5 1.8.9.9.8 1.2 1.3.4 1.1.4 1.7c-.2 1-.8 1.4-1.8 1.4-.6 0-1-.2-1.4-.6s-.6-1-.7-1.9l-.1-1.6c-.2 0-.3-.1-.5-.1h-.5c-.6 0-1.1.1-1.6.4s-.9.6-1.3 1.1-.7 1.1-.9 1.8-.3 1.6-.3 2.5c0 2 .4 3.4 1.2 4.4s1.9 1.4 3.1 1.4c.8 0 1.5-.2 2.1-.6s1.1-.9 1.5-1.7l1.3.6zM259.9 16.4l-.3 5h-12.5v-1.2l8-11.8h-4.9l-.8 3.3-2.1-.1.2-4.6h12.1v1.2l-7.8 11.9h5l.9-3.6 2.2-.1z"/><circle cx="120" cy="1.9" r="2.1"/><circle cx="173.2" cy="1.9" r="2.1"/><circle cx="193.9" cy="1.9" r="2.1"/><circle cx="218.2" cy="1.9" r="2.1"/><circle cx="227.5" cy="19.7" r="2.1"/><path d="M111.9.5L109 4.7h-2.1L104 .5l.9-.7 3 2.8L111-.2l.9.7zM53.6 4c1.2 0 2.1-1 2.1-2.1s-1-2.1-2.1-2.1c-1.2 0-2.1 1-2.1 2.1S52.4 4 53.6 4zM53.6 19.1c-1.2 0-2.1 1-2.1 2.1 0 1.2 1 2.1 2.1 2.1 1.2 0 2.1-1 2.1-2.1 0-1.2-.9-2.1-2.1-2.1zM53.6 12.6c-1.2 0-2.1 1-2.1 2.1s1 2.1 2.1 2.1c1.2 0 2.1-1 2.1-2.1s-.9-2.1-2.1-2.1zM53.6 6.2c-1.2 0-2.1 1-2.1 2.1 0 1.2 1 2.1 2.1 2.1 1.2 0 2.1-1 2.1-2.1s-.9-2.1-2.1-2.1zM47.2-.2c-1.2 0-2.1 1-2.1 2.1s1 2.1 2.1 2.1c1.2 0 2.1-1 2.1-2.1s-1-2.1-2.1-2.1zM47.2 19.1c-1.2 0-2.1 1-2.1 2.1 0 1.2 1 2.1 2.1 2.1 1.2 0 2.1-1 2.1-2.1 0-1.2-1-2.1-2.1-2.1zM47.2 12.6c-1.2 0-2.1 1-2.1 2.1s1 2.1 2.1 2.1c1.2 0 2.1-1 2.1-2.1s-1-2.1-2.1-2.1zM47.2 6.2c-1.2 0-2.1 1-2.1 2.1 0 1.2 1 2.1 2.1 2.1 1.2 0 2.1-1 2.1-2.1s-1-2.1-2.1-2.1zM40.7-.2c-1.2 0-2.1 1-2.1 2.1s1 2.1 2.1 2.1c1.2 0 2.1-1 2.1-2.1s-.9-2.1-2.1-2.1zM40.7 19.1c-1.2 0-2.1 1-2.1 2.1 0 1.2 1 2.1 2.1 2.1 1.2 0 2.1-1 2.1-2.1.1-1.2-.9-2.1-2.1-2.1zM40.7 12.6c-1.2 0-2.1 1-2.1 2.1s1 2.1 2.1 2.1c1.2 0 2.1-1 2.1-2.1s-.9-2.1-2.1-2.1zM40.7 6.2c-1.2 0-2.1 1-2.1 2.1 0 1.2 1 2.1 2.1 2.1 1.2 0 2.1-1 2.1-2.1.1-1.1-.9-2.1-2.1-2.1zM34.3-.2c-1.2 0-2.1 1-2.1 2.1s1 2.1 2.1 2.1c1.2 0 2.1-1 2.1-2.1s-.9-2.1-2.1-2.1zM34.3 19.1c-1.2 0-2.1 1-2.1 2.1 0 1.2 1 2.1 2.1 2.1 1.2 0 2.1-1 2.1-2.1 0-1.2-.9-2.1-2.1-2.1zM34.3 12.6c-1.2 0-2.1 1-2.1 2.1s1 2.1 2.1 2.1c1.2 0 2.1-1 2.1-2.1s-.9-2.1-2.1-2.1zM34.3 6.2c-1.2 0-2.1 1-2.1 2.1 0 1.2 1 2.1 2.1 2.1 1.2 0 2.1-1 2.1-2.1s-.9-2.1-2.1-2.1zM27.9-.2c-1.2 0-2.1 1-2.1 2.1s1 2.1 2.1 2.1C29.1 4 30 3 30 1.9S29-.2 27.9-.2zM27.9 19.1c-1.2 0-2.1 1-2.1 2.1 0 1.2 1 2.1 2.1 2.1 1.2 0 2.1-1 2.1-2.1 0-1.2-1-2.1-2.1-2.1zM27.9 12.6c-1.2 0-2.1 1-2.1 2.1s1 2.1 2.1 2.1c1.2 0 2.1-1 2.1-2.1s-1-2.1-2.1-2.1zM27.9 6.2c-1.2 0-2.1 1-2.1 2.1 0 1.2 1 2.1 2.1 2.1 1.2 0 2.1-1 2.1-2.1s-1-2.1-2.1-2.1zM21.4-.2c-1.2 0-2.1 1-2.1 2.1s1 2.1 2.1 2.1c1.2 0 2.1-1 2.1-2.1s-.9-2.1-2.1-2.1zM21.4 19.1c-1.2 0-2.1 1-2.1 2.1 0 1.2 1 2.1 2.1 2.1 1.2 0 2.1-1 2.1-2.1.1-1.2-.9-2.1-2.1-2.1zM21.4 12.6c-1.2 0-2.1 1-2.1 2.1s1 2.1 2.1 2.1c1.2 0 2.1-1 2.1-2.1s-.9-2.1-2.1-2.1zM21.4 6.2c-1.2 0-2.1 1-2.1 2.1 0 1.2 1 2.1 2.1 2.1 1.2 0 2.1-1 2.1-2.1.1-1.1-.9-2.1-2.1-2.1zM15-.2c-1.2 0-2.1 1-2.1 2.1S13.9 4 15 4c1.2 0 2.1-1 2.1-2.1S16.2-.2 15-.2zM15 19.1c-1.2 0-2.1 1-2.1 2.1 0 1.2 1 2.1 2.1 2.1 1.2 0 2.1-1 2.1-2.1 0-1.2-.9-2.1-2.1-2.1zM15 12.6c-1.2 0-2.1 1-2.1 2.1s1 2.1 2.1 2.1c1.2 0 2.1-1 2.1-2.1s-.9-2.1-2.1-2.1zM15 6.2c-1.2 0-2.1 1-2.1 2.1 0 1.2 1 2.1 2.1 2.1 1.2 0 2.1-1 2.1-2.1s-.9-2.1-2.1-2.1zM8.6-.2c-1.2 0-2.1 1-2.1 2.1S7.5 4 8.6 4c1.2 0 2.1-1 2.1-2.1S9.7-.2 8.6-.2zM8.6 19.1c-1.2 0-2.1 1-2.1 2.1 0 1.2 1 2.1 2.1 2.1 1.2 0 2.1-1 2.1-2.1 0-1.2-1-2.1-2.1-2.1zM8.6 12.6c-1.2 0-2.1 1-2.1 2.1s1 2.1 2.1 2.1c1.2 0 2.1-1 2.1-2.1s-1-2.1-2.1-2.1zM8.6 6.2c-1.2 0-2.1 1-2.1 2.1 0 1.2 1 2.1 2.1 2.1 1.2 0 2.1-1 2.1-2.1s-1-2.1-2.1-2.1zM2.1-.2C.9-.2 0 .8 0 1.9S1 4 2.1 4c1.2 0 2.1-1 2.1-2.1S3.3-.2 2.1-.2zM2.1 19.1c-1.2 0-2.1 1-2.1 2.1 0 1.2 1 2.1 2.1 2.1 1.2 0 2.1-1 2.1-2.1.1-1.2-.9-2.1-2.1-2.1zM2.1 12.6c-1.2 0-2.1 1-2.1 2.1s1 2.1 2.1 2.1c1.2 0 2.1-1 2.1-2.1s-.9-2.1-2.1-2.1zM2.1 6.2C.9 6.2 0 7.2 0 8.3c0 1.2 1 2.1 2.1 2.1 1.2 0 2.1-1 2.1-2.1.1-1.1-.9-2.1-2.1-2.1z"/></svg>