<?xml version="1.0" encoding="utf-8"?>
<!-- Generator: Adobe Illustrator 23.0.3, SVG Export Plug-In . SVG Version: 6.00 Build 0)  -->
<svg version="1.1" id="Layer_1" xmlns="http://www.w3.org/2000/svg" xmlns:xlink="http://www.w3.org/1999/xlink" x="0px" y="0px"
	 viewBox="0 0 259.3 27.7" style="enable-background:new 0 0 259.3 27.7;" xml:space="preserve">
<path d="M85.5,3.2l-2.8,0.4v18.1h-1.5L68.8,6.3v13.3l3.4,0.4v1.5h-8v-1.6l2.8-0.4V4l-0.4-0.5l-2-0.2V1.8h5.9L81,15.1V3.7l-3.5-0.4
	V1.8h8V3.2z"/>
<path d="M100.7,19.5c-0.4,0.8-0.9,1.4-1.4,1.7s-1.1,0.5-1.9,0.5s-1.5-0.2-2-0.5s-0.9-0.7-1.1-1.3c-0.7,0.6-1.3,1.1-2,1.4
	c-0.6,0.3-1.4,0.5-2.4,0.5c-1.2,0-2.2-0.3-2.9-0.9s-1.1-1.5-1.1-2.7c0-0.5,0.1-0.9,0.2-1.4c0.1-0.4,0.4-0.9,0.8-1.3s1-0.8,1.7-1.2
	s1.6-0.8,2.8-1.2c0.3-0.1,0.7-0.2,1.2-0.4c0.5-0.1,0.9-0.3,1.4-0.4v-0.9c0-1.3-0.2-2.2-0.6-2.7s-1-0.8-2-0.8c-0.2,0-0.3,0-0.5,0
	c-0.1,0-0.3,0-0.5,0l-0.2,1.7c-0.1,0.8-0.3,1.4-0.7,1.7c-0.4,0.4-0.8,0.6-1.4,0.6c-0.5,0-0.9-0.1-1.2-0.4s-0.5-0.6-0.6-1.1
	c0.1-1.2,0.8-2.2,1.9-2.9c1.1-0.8,2.6-1.2,4.6-1.2c0.9,0,1.7,0.1,2.4,0.3s1.2,0.6,1.6,1c0.4,0.5,0.7,1.1,0.9,1.9s0.3,1.7,0.3,2.8
	v6.2c0,0.3,0.1,0.6,0.2,0.8s0.3,0.3,0.6,0.3c0.2,0,0.4-0.1,0.5-0.2s0.3-0.3,0.4-0.4l0.1-0.2L100.7,19.5z M94,13.6
	c-0.4,0.1-0.7,0.2-1.1,0.3c-0.3,0.1-0.6,0.2-0.9,0.3c-0.9,0.3-1.5,0.8-1.8,1.3c-0.3,0.5-0.5,1.1-0.5,1.7c0,0.4,0.1,0.7,0.2,1
	c0.1,0.2,0.2,0.4,0.4,0.6c0.4,0.4,1,0.6,1.7,0.6c0.3,0,0.6-0.1,0.9-0.2s0.7-0.3,1.1-0.6L94,13.6z"/>
<path d="M109.7,12.5c0.8,0.3,1.4,0.6,2,0.9c0.5,0.3,0.9,0.7,1.2,1.1s0.5,0.8,0.6,1.2c0.1,0.4,0.2,0.9,0.2,1.4c0,0.7-0.2,1.4-0.5,1.9
	c-0.3,0.6-0.7,1.1-1.3,1.5s-1.2,0.7-2,1c-0.8,0.2-1.7,0.3-2.6,0.3c-1,0-2-0.1-2.7-0.4c-0.8-0.2-1.6-0.6-2.4-1.1v-3.4h2.3l0.4,2.6
	c0.5,0.3,0.9,0.4,1.3,0.6c0.4,0.1,0.8,0.2,1.2,0.2c1,0,1.7-0.2,2.1-0.5c0.5-0.3,0.7-0.8,0.7-1.5c0-0.3,0-0.5-0.1-0.7
	s-0.2-0.4-0.5-0.6c-0.2-0.2-0.5-0.4-0.9-0.5c-0.4-0.2-0.8-0.4-1.4-0.6l-1.4-0.5c-1.2-0.5-2.1-1.1-2.7-1.8s-0.9-1.6-0.9-2.7
	c0-1.3,0.5-2.4,1.5-3.2s2.5-1.2,4.6-1.2c0.9,0,1.7,0.1,2.4,0.3s1.4,0.5,2.2,0.8l-0.2,3.3h-2.3l-0.4-2.5c-0.3-0.1-0.5-0.2-0.8-0.3
	s-0.6-0.1-1-0.1c-0.7,0-1.3,0.2-1.7,0.5s-0.7,0.8-0.7,1.4c0,0.2,0,0.4,0.1,0.6s0.2,0.4,0.5,0.6c0.2,0.2,0.5,0.4,0.9,0.5
	s0.9,0.4,1.5,0.6L109.7,12.5z"/>
<path d="M123.8,20.1v1.3h-7.7v-1.3l1.8-0.4c0-0.8,0-1.6,0-2.4s0-1.6,0-2.2v-1.5c0-0.8,0-1.5,0-2.1c0-0.5,0-1.1-0.1-1.7l-2-0.3V8.4
	l5.8-1.9l0.4,0.3l-0.1,4.3v4.1v2.2c0,0,0,1.6,0,2.4L123.8,20.1z"/>
<path d="M130.8,8.4c0.6-0.6,1.3-1.1,2-1.4c0.7-0.3,1.5-0.5,2.5-0.5c0.8,0,1.6,0.2,2.4,0.5c0.7,0.3,1.4,0.8,1.9,1.4s0.9,1.4,1.2,2.4
	c0.3,1,0.5,2.1,0.5,3.3s-0.2,2.3-0.5,3.2c-0.3,0.9-0.8,1.8-1.4,2.4c-0.6,0.6-1.3,1.2-2,1.5c-0.8,0.4-1.6,0.5-2.5,0.5
	c-0.8,0-1.5-0.1-2.1-0.4c-0.6-0.2-1.2-0.6-1.7-1.1v1v2.3V26l2.2,0.4v1.3h-8.1v-1.3L127,26c0-0.8,0-1.6,0-2.5s0-1.7,0-2.4v-8
	c0-0.4,0-0.8,0-1.1s0-0.6,0-0.9s0-0.5,0-0.8c0-0.2,0-0.5,0-0.8l-2-0.3V8.1l5.4-1.9l0.4,0.3L130.8,8.4z M131.1,18.6
	c0.4,0.3,0.8,0.5,1.2,0.7s0.8,0.3,1.3,0.3c0.9,0,1.7-0.4,2.3-1.3s1-2.2,1-4.1c0-1.8-0.3-3.2-0.8-4.1c-0.6-0.9-1.3-1.3-2.3-1.3
	c-0.5,0-0.9,0.1-1.4,0.3s-0.9,0.4-1.3,0.7V18.6z"/>
<path d="M150.8,6.4c1,0,2,0.2,2.9,0.5s1.7,0.9,2.4,1.5c0.7,0.7,1.3,1.5,1.7,2.4c0.4,1,0.6,2,0.6,3.2s-0.2,2.3-0.6,3.2
	c-0.4,0.9-0.9,1.7-1.6,2.4c-0.7,0.7-1.5,1.2-2.4,1.5c-0.9,0.4-1.9,0.5-3,0.5s-2.1-0.2-3-0.5s-1.7-0.9-2.4-1.5
	c-0.7-0.7-1.2-1.5-1.6-2.4c-0.4-0.9-0.6-2-0.6-3.2s0.2-2.3,0.6-3.2c0.4-0.9,1-1.8,1.7-2.4c0.7-0.7,1.5-1.2,2.4-1.5
	S149.8,6.4,150.8,6.4L150.8,6.4z M150.8,7.9c-2.1,0-3.2,2.1-3.2,6.2c0,2.1,0.3,3.7,0.8,4.7s1.3,1.5,2.4,1.5c1.1,0,1.8-0.5,2.4-1.5
	c0.5-1,0.8-2.6,0.8-4.7C153.9,10,152.9,7.9,150.8,7.9z"/>
<path d="M167,20.1v1.3h-7.6v-1.3l1.8-0.4c0-0.8,0-1.6,0-2.3s0-1.5,0-2.3V2.6L159,2.3V1.1l6-1.4l0.4,0.2l-0.1,4.3V15v2.3v2.3
	L167,20.1z"/>
<path d="M177.1,20.1v1.3h-7.7v-1.3l1.8-0.4c0-0.8,0-1.6,0-2.4s0-1.6,0-2.2v-1.5c0-0.8,0-1.5,0-2.1c0-0.5,0-1.1-0.1-1.7l-2-0.3V8.4
	l5.8-1.9l0.4,0.3l-0.1,4.3v4.1v2.2c0,0,0,1.6,0,2.4L177.1,20.1z"/>
<path d="M188.5,19.6c-0.4,0.6-0.9,1.1-1.6,1.5s-1.6,0.6-2.7,0.6c-1.2,0-2.2-0.3-2.9-0.9s-1.1-1.5-1.1-2.8c0-0.6,0-1.2,0-1.6
	s0-1,0-1.5v-6h-2V7.3l2.4-0.3l0.8-4.2h2.9V7h3.4v1.9h-3.4v8.2c0,0.7,0.1,1.3,0.4,1.6s0.7,0.5,1.1,0.5c0.2,0,0.5,0,0.8-0.1
	s0.6-0.3,1-0.6L188.5,19.6z"/>
<path d="M197.9,20.1v1.3h-7.7v-1.3l1.8-0.4c0-0.8,0-1.6,0-2.4s0-1.6,0-2.2v-1.5c0-0.8,0-1.5,0-2.1c0-0.5,0-1.1-0.1-1.7l-2-0.3V8.4
	l5.8-1.9l0.5,0.3l-0.1,4.3v4.1v2.2c0,0,0,1.6,0,2.4L197.9,20.1z"/>
<path d="M212.4,17.8c-0.4,1.3-1.1,2.3-2.2,3s-2.4,1-3.9,1c-1.1,0-2.1-0.2-3-0.5s-1.7-0.8-2.3-1.5s-1.1-1.4-1.5-2.4
	c-0.3-0.9-0.5-2-0.5-3.3c0-1.2,0.2-2.3,0.6-3.2c0.4-1,1-1.8,1.7-2.4s1.5-1.2,2.4-1.5s1.9-0.5,3-0.5c0.8,0,1.5,0.1,2.2,0.3
	s1.3,0.5,1.8,0.9c0.5,0.4,0.9,0.8,1.2,1.3s0.4,1.1,0.4,1.7c-0.2,1-0.8,1.4-1.8,1.4c-0.6,0-1-0.2-1.4-0.6s-0.6-1-0.7-1.9L208.3,8
	c-0.2,0-0.3-0.1-0.5-0.1c-0.1,0-0.3,0-0.5,0c-0.6,0-1.1,0.1-1.6,0.4s-0.9,0.6-1.3,1.1s-0.7,1.1-0.9,1.8s-0.3,1.6-0.3,2.5
	c0,2,0.4,3.4,1.2,4.4s1.9,1.4,3.1,1.4c0.8,0,1.5-0.2,2.1-0.6s1.1-0.9,1.5-1.7L212.4,17.8z"/>
<path d="M222.1,20.1v1.3h-7.7v-1.3l1.8-0.4c0-0.8,0-1.6,0-2.4s0-1.6,0-2.2v-1.5c0-0.8,0-1.5,0-2.1c0-0.5,0-1.1-0.1-1.7l-2-0.3V8.4
	l5.8-1.9l0.5,0.3l-0.1,4.3v4.1v2.2c0,0,0,1.6,0,2.4L222.1,20.1z"/>
<path d="M245.4,17.8c-0.4,1.3-1.1,2.3-2.2,3s-2.4,1-3.9,1c-1.1,0-2.1-0.2-3-0.5s-1.7-0.8-2.3-1.5s-1.1-1.4-1.5-2.4
	c-0.3-0.9-0.5-2-0.5-3.3c0-1.2,0.2-2.3,0.6-3.2c0.4-1,1-1.8,1.7-2.4s1.5-1.2,2.4-1.5s1.9-0.5,3-0.5c0.8,0,1.5,0.1,2.2,0.3
	s1.3,0.5,1.8,0.9c0.5,0.4,0.9,0.8,1.2,1.3s0.4,1.1,0.4,1.7c-0.2,1-0.8,1.4-1.8,1.4c-0.6,0-1-0.2-1.4-0.6s-0.6-1-0.7-1.9L241.3,8
	c-0.2,0-0.3-0.1-0.5-0.1c-0.1,0-0.3,0-0.5,0c-0.6,0-1.1,0.1-1.6,0.4s-0.9,0.6-1.3,1.1s-0.7,1.1-0.9,1.8s-0.3,1.6-0.3,2.5
	c0,2,0.4,3.4,1.2,4.4s1.9,1.4,3.1,1.4c0.8,0,1.5-0.2,2.1-0.6s1.1-0.9,1.5-1.7L245.4,17.8z"/>
<path d="M259.9,16.4l-0.3,5h-12.5v-1.2l8-11.8h-4.9l-0.8,3.3l-2.1-0.1l0.2-4.6h12.1v1.2l-7.8,11.9h5l0.9-3.6L259.9,16.4L259.9,16.4z
	"/>
<circle cx="120" cy="1.9" r="2.1"/>
<circle cx="173.2" cy="1.9" r="2.1"/>
<circle cx="193.9" cy="1.9" r="2.1"/>
<circle cx="218.2" cy="1.9" r="2.1"/>
<circle cx="227.5" cy="19.7" r="2.1"/>
<path d="M111.9,0.5L109,4.7h-2.1L104,0.5l0.9-0.7l3,2.8l3.1-2.8L111.9,0.5z"/>
<path d="M53.6,4c1.2,0,2.1-1,2.1-2.1s-1-2.1-2.1-2.1c-1.2,0-2.1,1-2.1,2.1S52.4,4,53.6,4z"/>
<path d="M53.6,19.1c-1.2,0-2.1,1-2.1,2.1c0,1.2,1,2.1,2.1,2.1c1.2,0,2.1-1,2.1-2.1C55.7,20,54.8,19.1,53.6,19.1z"/>
<path d="M53.6,12.6c-1.2,0-2.1,1-2.1,2.1s1,2.1,2.1,2.1c1.2,0,2.1-1,2.1-2.1S54.8,12.6,53.6,12.6z"/>
<path d="M53.6,6.2c-1.2,0-2.1,1-2.1,2.1c0,1.2,1,2.1,2.1,2.1c1.2,0,2.1-1,2.1-2.1S54.8,6.2,53.6,6.2z"/>
<path d="M47.2-0.2c-1.2,0-2.1,1-2.1,2.1s1,2.1,2.1,2.1c1.2,0,2.1-1,2.1-2.1S48.3-0.2,47.2-0.2z"/>
<path d="M47.2,19.1c-1.2,0-2.1,1-2.1,2.1c0,1.2,1,2.1,2.1,2.1c1.2,0,2.1-1,2.1-2.1C49.3,20,48.3,19.1,47.2,19.1z"/>
<path d="M47.2,12.6c-1.2,0-2.1,1-2.1,2.1s1,2.1,2.1,2.1c1.2,0,2.1-1,2.1-2.1S48.3,12.6,47.2,12.6z"/>
<path d="M47.2,6.2c-1.2,0-2.1,1-2.1,2.1c0,1.2,1,2.1,2.1,2.1c1.2,0,2.1-1,2.1-2.1S48.3,6.2,47.2,6.2z"/>
<path d="M40.7-0.2c-1.2,0-2.1,1-2.1,2.1s1,2.1,2.1,2.1c1.2,0,2.1-1,2.1-2.1S41.9-0.2,40.7-0.2z"/>
<path d="M40.7,19.1c-1.2,0-2.1,1-2.1,2.1c0,1.2,1,2.1,2.1,2.1c1.2,0,2.1-1,2.1-2.1C42.9,20,41.9,19.1,40.7,19.1z"/>
<path d="M40.7,12.6c-1.2,0-2.1,1-2.1,2.1s1,2.1,2.1,2.1c1.2,0,2.1-1,2.1-2.1S41.9,12.6,40.7,12.6z"/>
<path d="M40.7,6.2c-1.2,0-2.1,1-2.1,2.1c0,1.2,1,2.1,2.1,2.1c1.2,0,2.1-1,2.1-2.1C42.9,7.2,41.9,6.2,40.7,6.2z"/>
<path d="M34.3-0.2c-1.2,0-2.1,1-2.1,2.1s1,2.1,2.1,2.1c1.2,0,2.1-1,2.1-2.1S35.5-0.2,34.3-0.2z"/>
<path d="M34.3,19.1c-1.2,0-2.1,1-2.1,2.1c0,1.2,1,2.1,2.1,2.1c1.2,0,2.1-1,2.1-2.1C36.4,20,35.5,19.1,34.3,19.1z"/>
<path d="M34.3,12.6c-1.2,0-2.1,1-2.1,2.1s1,2.1,2.1,2.1c1.2,0,2.1-1,2.1-2.1S35.5,12.6,34.3,12.6z"/>
<path d="M34.3,6.2c-1.2,0-2.1,1-2.1,2.1c0,1.2,1,2.1,2.1,2.1c1.2,0,2.1-1,2.1-2.1S35.5,6.2,34.3,6.2z"/>
<path d="M27.9-0.2c-1.2,0-2.1,1-2.1,2.1s1,2.1,2.1,2.1C29.1,4,30,3,30,1.9S29-0.2,27.9-0.2z"/>
<path d="M27.9,19.1c-1.2,0-2.1,1-2.1,2.1c0,1.2,1,2.1,2.1,2.1c1.2,0,2.1-1,2.1-2.1C30,20,29,19.1,27.9,19.1z"/>
<path d="M27.9,12.6c-1.2,0-2.1,1-2.1,2.1s1,2.1,2.1,2.1c1.2,0,2.1-1,2.1-2.1S29,12.6,27.9,12.6z"/>
<path d="M27.9,6.2c-1.2,0-2.1,1-2.1,2.1c0,1.2,1,2.1,2.1,2.1c1.2,0,2.1-1,2.1-2.1S29,6.2,27.9,6.2z"/>
<path d="M21.4-0.2c-1.2,0-2.1,1-2.1,2.1s1,2.1,2.1,2.1c1.2,0,2.1-1,2.1-2.1S22.6-0.2,21.4-0.2z"/>
<path d="M21.4,19.1c-1.2,0-2.1,1-2.1,2.1c0,1.2,1,2.1,2.1,2.1c1.2,0,2.1-1,2.1-2.1C23.6,20,22.6,19.1,21.4,19.1z"/>
<path d="M21.4,12.6c-1.2,0-2.1,1-2.1,2.1s1,2.1,2.1,2.1c1.2,0,2.1-1,2.1-2.1S22.6,12.6,21.4,12.6z"/>
<path d="M21.4,6.2c-1.2,0-2.1,1-2.1,2.1c0,1.2,1,2.1,2.1,2.1c1.2,0,2.1-1,2.1-2.1C23.6,7.2,22.6,6.2,21.4,6.2z"/>
<path d="M15-0.2c-1.2,0-2.1,1-2.1,2.1S13.9,4,15,4c1.2,0,2.1-1,2.1-2.1S16.2-0.2,15-0.2z"/>
<path d="M15,19.1c-1.2,0-2.1,1-2.1,2.1c0,1.2,1,2.1,2.1,2.1c1.2,0,2.1-1,2.1-2.1C17.1,20,16.2,19.1,15,19.1z"/>
<path d="M15,12.6c-1.2,0-2.1,1-2.1,2.1s1,2.1,2.1,2.1c1.2,0,2.1-1,2.1-2.1S16.2,12.6,15,12.6z"/>
<path d="M15,6.2c-1.2,0-2.1,1-2.1,2.1c0,1.2,1,2.1,2.1,2.1c1.2,0,2.1-1,2.1-2.1S16.2,6.2,15,6.2z"/>
<path d="M8.6-0.2c-1.2,0-2.1,1-2.1,2.1S7.5,4,8.6,4c1.2,0,2.1-1,2.1-2.1S9.7-0.2,8.6-0.2z"/>
<path d="M8.6,19.1c-1.2,0-2.1,1-2.1,2.1c0,1.2,1,2.1,2.1,2.1c1.2,0,2.1-1,2.1-2.1C10.7,20,9.7,19.1,8.6,19.1z"/>
<path d="M8.6,12.6c-1.2,0-2.1,1-2.1,2.1s1,2.1,2.1,2.1c1.2,0,2.1-1,2.1-2.1S9.7,12.6,8.6,12.6z"/>
<path d="M8.6,6.2c-1.2,0-2.1,1-2.1,2.1c0,1.2,1,2.1,2.1,2.1c1.2,0,2.1-1,2.1-2.1S9.7,6.2,8.6,6.2z"/>
<path d="M2.1-0.2C0.9-0.2,0,0.8,0,1.9S1,4,2.1,4c1.2,0,2.1-1,2.1-2.1S3.3-0.2,2.1-0.2z"/>
<path d="M2.1,19.1c-1.2,0-2.1,1-2.1,2.1c0,1.2,1,2.1,2.1,2.1c1.2,0,2.1-1,2.1-2.1C4.3,20,3.3,19.1,2.1,19.1z"/>
<path d="M2.1,12.6c-1.2,0-2.1,1-2.1,2.1s1,2.1,2.1,2.1c1.2,0,2.1-1,2.1-2.1S3.3,12.6,2.1,12.6z"/>
<path d="M2.1,6.2C0.9,6.2,0,7.2,0,8.3c0,1.2,1,2.1,2.1,2.1c1.2,0,2.1-1,2.1-2.1C4.3,7.2,3.3,6.2,2.1,6.2z"/>
</svg>
