<svg width="150" height="30" fill="none" xmlns="http://www.w3.org/2000/svg"><path d="M1.07.3l4.162 3.75L1.069 7.8c-.121.099-.04.3.12.3h1.308c.08 0 .13-.016.18-.06l4.364-3.99L2.677.06a.245.245 0 00-.18-.06H1.19c-.16 0-.24.2-.12.3zM86.69 5.923c-.732 0-1.147.436-1.147 1.167 0 .732.415 1.148 1.147 1.148s1.148-.415 1.148-1.147-.416-1.168-1.148-1.168zM141.711 12.79c-.118 0-.178-.06-.178-.158v-.812c0-.119.06-.178.178-.178h4.55c.118 0 .178.058.178.178v11.116c0 1.168.593 1.84 1.781 1.84h1.601c.119 0 .179.06.179.159v.811c0 .119-.06.178-.179.178h-1.799c-1.86 0-2.948-1.087-2.948-2.947V12.79h-3.363zM41.439 16.924c-.158 0-.198.02-.317.119l-4.213 3.819v-9.04c0-.12-.06-.179-.179-.179h-1.008c-.118 0-.178.06-.178.178v13.926c0 .119.06.179.178.179h1.008c.119 0 .179-.06.179-.178v-4.511l4.49 4.53c.118.12.197.159.335.159H43.1c.179 0 .237-.178.119-.297l-4.707-4.61 4.331-3.797c.139-.119.02-.298-.099-.298H41.44zM23.767 24.48c.04-.099.138-.119.257-.08 1.029.356 2.017.515 2.848.515 1.404 0 2.354-.454 2.354-1.167 0-.91-1.088-1.346-2.274-1.78l-.096-.036c-1.458-.543-3.03-1.13-3.03-2.793 0-1.82 1.978-2.354 3.858-2.354 1.087 0 2.136.159 2.73.355.099.04.138.139.099.238l-.237.77c-.04.119-.119.139-.218.119a10.593 10.593 0 00-2.611-.355c-1.167 0-2.235.277-2.235 1.186 0 .812 1.068 1.247 2.254 1.72l.091.037c1.46.584 3.055 1.222 3.055 2.713 0 1.918-1.84 2.493-3.7 2.493-1.345 0-2.689-.277-3.323-.573-.119-.06-.119-.138-.1-.218l.278-.79zM6.823 17.202c-.672-.257-1.483-.416-2.472-.416C1.483 16.787 0 18.706 0 21.418c0 2.73 1.522 4.648 4.351 4.648 1.008 0 1.859-.159 2.571-.495.1-.038.1-.137.06-.236l-.336-.752c-.039-.08-.138-.099-.237-.06-.83.276-1.207.356-1.998.356-1.443 0-2.986-.93-2.986-3.462 0-2.335 1.266-3.463 2.986-3.463.614 0 1.068.02 1.9.297.098.04.197.02.236-.06l.336-.751c.04-.078.04-.198-.06-.237z" fill="#fff"/><path fill-rule="evenodd" clip-rule="evenodd" d="M18.202 24.402c-.83.377-1.464.514-2.512.514-1.623 0-2.631-1.128-2.691-3.044h5.895c.157 0 .217-.1.217-.238v-.494c0-2.948-1.305-4.352-3.6-4.352-2.254 0-3.916 1.582-3.916 4.688 0 2.946 1.404 4.588 4.153 4.588 1.208 0 1.96-.198 2.909-.652.099-.04.099-.119.06-.198l-.297-.732c-.04-.08-.119-.119-.218-.08zM13 20.802c.178-2.157 1.425-2.928 2.532-2.928 1.089 0 2.196.633 2.196 2.928h-4.728zM50.941 26.063c-2.868 0-3.798-1.938-3.798-4.649 0-2.71.93-4.629 3.798-4.629s3.778 1.918 3.778 4.629c0 2.71-.91 4.648-3.778 4.648zm0-8.249c-1.542 0-2.373 1.227-2.373 3.6 0 2.394.831 3.62 2.373 3.62 1.543 0 2.353-1.206 2.353-3.62 0-2.393-.81-3.6-2.353-3.6z" fill="#fff"/><path d="M62.629 23.75c-.732 0-1.148.434-1.148 1.166 0 .731.416 1.146 1.148 1.148.732 0 1.147-.416 1.147-1.148s-.415-1.166-1.147-1.166z" fill="#fff"/><path fill-rule="evenodd" clip-rule="evenodd" d="M76.59 11.822c0-.119.06-.179.176-.179h1.01c.118 0 .178.058.178.178v13.926c0 .119-.06.179-.178.179h-.674c-.099 0-.138-.039-.159-.138l-.159-.652c-.95.652-1.82.93-2.67.93-2.413 0-3.58-1.721-3.58-4.63 0-2.867 1.227-4.648 3.798-4.648.83 0 1.582.297 2.256.792v-5.758h.001zm-2.077 13.054c.693 0 1.484-.237 2.078-.614v-5.677c-.614-.396-1.385-.672-2.078-.672-1.543 0-2.551 1.206-2.551 3.54-.002 2.514 1.008 3.423 2.551 3.423zM134.751 18.07c1.187 0 1.781.674 1.781 1.841h-.003v.79h-1.979c-2.353 0-3.699.672-3.699 2.849 0 1.503.851 2.512 2.394 2.512 1.227 0 2.039-.277 3.482-.91l.158.633c.022.099.061.138.16.138h.673c.119 0 .178-.06.178-.178V19.87c0-1.86-1.088-2.947-2.947-2.947h-3.085c-.099 0-.179.06-.179.179v.811c0 .098.08.157.179.157h2.887zm-2.493 5.383c0-1.187.732-1.682 2.117-1.682h2.157v2.512c-1.109.375-2.138.672-3.008.672-.87 0-1.266-.652-1.266-1.502zM100.97 16.924h.652c.119 0 .179.06.177.179v9.95c0 1.86-1.087 2.947-2.947 2.947h-3.104c-.118 0-.178-.06-.178-.178v-.812c0-.099.06-.159.178-.159h2.886c1.187 0 1.8-.674 1.8-1.84v-1.799c-.751.553-1.72.85-2.532.85-2.412 0-3.5-1.72-3.5-4.629 0-2.867 1.127-4.648 3.698-4.648.87 0 1.72.317 2.532.93l.159-.652c.02-.1.06-.139.179-.139zm-5.144 4.53c0 2.511.91 3.422 2.453 3.422.693 0 1.582-.237 2.157-.612v-5.677c-.594-.396-1.464-.672-2.157-.672-1.542 0-2.453 1.206-2.453 3.54z" fill="#fff"/><path d="M82.634 18.072c-.118 0-.178-.06-.178-.178v-.792c0-.119.06-.179.178-.179h4.806c.119 0 .179.06.179.179v7.516c0 .119.039.159.138.159h2.986c.119 0 .179.06.179.178v.791c0 .119-.06.178-.179.178h-8.11c-.119 0-.179-.06-.179-.178v-.79c0-.119.06-.179.179-.179h3.481c.1 0 .138-.039.138-.159v-6.547h-3.618v.001zM106.647 18.072c-.118 0-.178-.06-.178-.178v-.792c0-.119.06-.179.178-.179h4.806c.119 0 .179.06.179.179v7.516c0 .119.039.159.138.159h2.986c.119 0 .179.06.179.178v.791c0 .119-.06.178-.179.178h-8.11c-.119 0-.179-.06-.179-.178v-.79c0-.119.06-.179.179-.179h3.481c.099 0 .138-.039.138-.159v-6.547h-3.618v.001zM110.702 5.923c-.732 0-1.148.436-1.148 1.167 0 .732.416 1.148 1.148 1.148s1.147-.415 1.147-1.147-.415-1.168-1.147-1.168zM122.057 18.072h4.054c.119 0 .179-.06.179-.157v-.812c0-.119-.06-.179-.179-.179h-4.054v-3.118c0-.118-.06-.178-.179-.178h-1.009c-.119 0-.177.058-.177.178v3.118h-2.69c-.118 0-.178.06-.178.179v.811c0 .1.06.158.178.158h2.69v4.905c0 1.86 1.089 2.947 2.947 2.947h2.472c.119 0 .179-.06.179-.178v-.811c0-.1-.06-.16-.179-.16h-2.254c-1.187 0-1.8-.671-1.8-1.838v-4.865z" fill="#fff"/></svg>