<?xml version="1.0" encoding="utf-8"?>
<!-- Generator: Adobe Illustrator 23.0.4, SVG Export Plug-In . SVG Version: 6.00 Build 0)  -->
<svg version="1.1" id="Layer_1" xmlns="http://www.w3.org/2000/svg" xmlns:xlink="http://www.w3.org/1999/xlink" x="0px" y="0px"
	 viewBox="0 0 705.2 802.8" style="enable-background:new 0 0 705.2 802.8;" xml:space="preserve">
<style type="text/css">
	.st0{fill-rule:evenodd;clip-rule:evenodd;fill:#FFFFFF;}
	.st1{fill-rule:evenodd;clip-rule:evenodd;}
</style>
<g>
	<path class="st0" d="M523.8,578.1V344.2c0-89.3-73.4-153.2-163-153.2h-1.3c-89.6,0-166.7,63.9-166.7,153.2v233.8H523.8z"/>
	<path class="st1" d="M467.8,373.2c-20.7-5-56.2-6.5-80.9,0c-24.7,6.5-28,40.4,0,40.4C414.9,413.6,488.5,378.1,467.8,373.2z
		 M249,373.2c20.7-5,56.2-6.5,80.9,0c24.7,6.5,28,40.4,0,40.4C301.9,413.6,228.3,378.1,249,373.2L249,373.2z"/>
	<path class="st0" d="M365.1,3.7c-5.7-5-14.8-5-20.4,0L60.5,256.1c-5.6,5-6.8,14-2.6,20.4L70,294.6c4.2,6.3,12.2,7.3,17.8,2.4
		L354.9,61.5l270.2,235.5c5.7,5,13.7,4,17.9-2.4l12.1-18.1c4.2-6.3,3-15.4-2.7-20.4L365.1,3.7z"/>
	<g>
		<path class="st0" d="M0,802.8h16v-40h36.4v40h16v-90.2h-16v36.3H16v-36.3H0V802.8z M89.9,785.5c0,11.7,4.1,19,15.4,19
			c3.7,0,6.5-0.6,8.4-1.4l-2.1-11.9c-1.2,0.3-1.8,0.3-2.5,0.3c-1.7,0-3.4-1.4-3.4-5.2v-80.8H89.9V785.5z M127.5,802.8h15.9v-67.7
			h-15.9V802.8L127.5,802.8z M153.4,703.7h-15.7l-12.4,20.1h11.9L153.4,703.7z M159.7,769c0,22.3,10.9,35.4,27.9,35.4
			c7.3,0,14.2-4,19.2-9h0.6l1.1,7.3h13.1v-97.3h-15.9V730l0.6,10.9c-5.2-4.5-10.1-7.4-17.8-7.4C173.6,733.5,159.7,747,159.7,769
			L159.7,769z M176.1,768.9c0-14.2,7-22.3,15.7-22.3c4.5,0,9.1,1.5,13.8,5.7v31.6c-4.5,5.2-9,7.6-14.2,7.6
			C181.6,791.4,176.1,783.5,176.1,768.9z M238.9,784.6c0,11.9,8.3,19.9,20.1,19.9c8,0,14.9-4,21-9.1h0.4l1.2,7.4h13v-40.1
			c0-18.9-8.3-29.2-25.2-29.2c-10.8,0-20.3,4.1-27.7,8.8l5.8,10.6c5.9-3.6,12.3-6.6,19-6.6c9.1,0,12.1,6.1,12.3,13.2
			C251,762.6,238.9,770.2,238.9,784.6L238.9,784.6z M254.3,783.4c0-6.8,6.1-11.6,24.4-13.9v15.2c-5,4.7-9.2,7.4-14.8,7.4
			C258.3,792.1,254.3,789.5,254.3,783.4L254.3,783.4z M309.7,769c0,22.5,14.2,35.4,32.7,35.4c7.7,0,15.9-3,22.2-8.7l-6.6-10.1
			c-3.7,3-8.4,5.8-13.9,5.8c-10.6,0-18.1-9-18.1-22.5c0-13.6,7.6-22.6,18.5-22.6c4.3,0,7.9,1.8,11.4,5l7.6-10.1
			c-4.5-4.4-11.2-7.9-19.9-7.9C325.5,733.5,309.7,746.4,309.7,769L309.7,769z M336.8,723.8h12.8l13.1-20.1h-10.9l-8.3,11.7H343
			l-8.3-11.7h-11L336.8,723.8z M405.2,795c6.9,5.7,17.2,9.5,26.2,9.5c18.3,0,28.1-9.7,28.1-22.1c0-12.5-9.8-17.4-18.5-20.5
			c-7-2.6-13.4-4.3-13.4-8.7c0-3.4,2.5-5.4,7.7-5.4c4.8,0,9.5,2.2,14.5,5.8l9.1-12.1c-5.9-4.4-13.6-8.7-24.1-8.7
			c-15.9,0-26.2,8.7-26.2,21.4c0,11.3,9.8,17,18.1,20.1c7,2.8,13.9,4.8,13.9,9.4c0,3.6-2.6,5.8-8.7,5.8c-5.8,0-11.4-2.5-17.6-7.2
			L405.2,795L405.2,795z M475.3,778c0,15.9,6.6,26.5,23.6,26.5c6.6,0,11.6-1.4,15.2-2.5l-3.2-14.8c-1.8,0.7-4.3,1.4-6.5,1.4
			c-5.4,0-8.8-3.2-8.8-10.9v-27.4H512v-15.9h-16.4v-18.2h-16.8l-2.3,18.2l-10.5,0.8v15h9.4V778L475.3,778z M521.4,783.8
			c0,11.6,7.9,20.7,20.3,20.7c7.7,0,14.2-3.6,20-8.7h0.4l1.5,7h16.5v-39.2c0-21-9.7-30.9-27.2-30.9c-10.8,0-20.5,3.7-29.2,9
			l7.2,13.4c6.6-3.9,12.4-6.2,18.2-6.2c7.3,0,10.3,3.9,10.8,9.9C532.8,761.6,521.4,769.5,521.4,783.8L521.4,783.8z M540.7,782.3
			c0-5.2,4.7-9.4,19.2-11.3v12c-3.6,3.6-6.6,5.8-11.3,5.8C543.7,788.8,540.7,786.7,540.7,782.3z M574.2,703h-19.6l-12.3,20.7h14.8
			L574.2,703z M600.5,778c0,15.9,6.6,26.5,23.6,26.5c6.6,0,11.6-1.4,15.2-2.5l-3.2-14.8c-1.8,0.7-4.3,1.4-6.5,1.4
			c-5.4,0-8.8-3.2-8.8-10.9v-27.4h16.4v-15.9h-16.4v-18.2h-16.8l-2.3,18.2l-10.5,0.8v15h9.4L600.5,778L600.5,778z M649.7,776.9
			c0,17.1,6.3,27.6,21.2,27.6c9.4,0,15.9-4.3,21.5-11.2h0.6l1.4,9.5H711v-68.4h-20.3v45.2c-3.9,5.4-7,7.6-12.1,7.6
			c-5.8,0-8.5-3.2-8.5-13v-39.8h-20.3V776.9z"/>
	</g>
</g>
</svg>
