<svg width="18" height="18" viewBox="0 0 18 18" fill="none" xmlns="http://www.w3.org/2000/svg">
<path fill-rule="evenodd" clip-rule="evenodd" d="M8.11111 -3.8147e-06C3.63147 -3.8147e-06 0 3.63146 0 8.11111C0 12.5908 3.63147 16.2222 8.11111 16.2222C9.99052 16.2222 11.7206 15.583 13.0959 14.5102L16.2929 17.7071C16.6834 18.0976 17.3165 18.0976 17.7071 17.7071C18.0976 17.3166 18.0976 16.6834 17.7071 16.2929L14.5101 13.0959C15.583 11.7207 16.2222 9.99053 16.2222 8.11111C16.2222 3.63146 12.5908 -3.8147e-06 8.11111 -3.8147e-06ZM12.518 12.3449C13.5734 11.2466 14.2222 9.75461 14.2222 8.11111C14.2222 4.73603 11.4862 2 8.11111 2C4.73604 2 2 4.73603 2 8.11111C2 11.4862 4.73604 14.2222 8.11111 14.2222C9.7546 14.2222 11.2466 13.5735 12.3449 12.518C12.3698 12.4862 12.3969 12.4555 12.4262 12.4262C12.4555 12.3969 12.4862 12.3698 12.518 12.3449Z" fill="white"/>
</svg>
