<svg id="Layer_1" data-name="Layer 1" xmlns="http://www.w3.org/2000/svg" viewBox="0 0 1024 1024"><defs><style>.yt-icon-1{fill:red;}.yt-icon-2{fill:#fff;}</style></defs><circle class="yt-icon-1" cx="512" cy="512" r="512"/><path class="yt-icon-2" d="M844.62,346.16a86.42,86.42,0,0,0-60.82-61.22C730.14,270.47,515,270.47,515,270.47s-215.14,0-268.8,14.47a86.42,86.42,0,0,0-60.82,61.22C171,400.16,171,512.83,171,512.83s0,112.67,14.38,166.67a86.42,86.42,0,0,0,60.82,61.22C299.86,755.19,515,755.19,515,755.19s215.14,0,268.8-14.47a86.42,86.42,0,0,0,60.82-61.22C859,625.5,859,512.83,859,512.83S859,400.16,844.62,346.16Z"/><polygon class="yt-icon-1" points="444.64 615.13 624.46 512.83 444.64 410.53 444.64 615.13"/></svg>