<svg id="Layer_1" data-name="Layer 1" xmlns="http://www.w3.org/2000/svg" viewBox="0 0 1024 1024"><defs><style>.tw-icon-1{fill:#1b9df0;}.tw-icon-2{fill:#fff;}</style></defs><g id="Dark_Blue" data-name="Dark Blue"><circle class="tw-icon-1" cx="512" cy="512" r="512"/></g><g id="Logo_FIXED" data-name="Logo — FIXED"><path class="tw-icon-2" d="M418.3,782.08c227.08,0,351.24-188.16,351.24-351.23,0-5.38,0-10.75-.26-15.87A253.05,253.05,0,0,0,831,351a250.81,250.81,0,0,1-70.92,19.45,123.39,123.39,0,0,0,54.28-68.35A250,250,0,0,1,736,332a123.51,123.51,0,0,0-213.5,84.48,113.3,113.3,0,0,0,3.32,28.16c-102.65-5.12-193.53-54.27-254.46-129a123.39,123.39,0,0,0,38.4,164.61A121.45,121.45,0,0,1,254,464.9v1.53A123.58,123.58,0,0,0,353,587.52a122.84,122.84,0,0,1-32.51,4.35,118.29,118.29,0,0,1-23.29-2.3,123.26,123.26,0,0,0,115.2,85.76,248.17,248.17,0,0,1-153.35,52.73,224.53,224.53,0,0,1-29.44-1.79A343.92,343.92,0,0,0,418.3,782.08"/></g></svg>