<svg width="30" height="30" viewBox="0 0 30 30" fill="none" xmlns="http://www.w3.org/2000/svg">
<circle cx="15" cy="15" r="15" fill="#00ACED"/>
<path fill-rule="evenodd" clip-rule="evenodd" d="M22.6486 10.2694C22.5751 10.8468 21.7376 11.4262 21.2303 11.8651C21.7309 19.2454 13.3926 23.8491 7.3125 20.1093C9.01775 20.1221 10.9078 19.654 11.9222 18.691C10.4473 18.452 9.40228 17.7831 8.99681 16.4748C9.42884 16.434 10.0352 16.5675 10.3265 16.3861C8.97734 15.8737 7.9105 15.079 7.84441 13.2834C8.32497 13.3347 8.57478 13.6168 9.17409 13.5494C8.30166 12.99 7.30544 10.863 8.199 9.29427C9.78234 11.05 11.7589 12.4126 14.8476 12.6629C14.0814 9.40452 18.4006 7.38552 20.3438 9.73752C21.0993 9.57699 21.736 9.29768 22.3827 9.02833C22.1178 9.76821 21.5798 10.2348 21.0529 10.7126C21.6256 10.6057 22.2307 10.5311 22.6486 10.2694Z" fill="white"/>
</svg>
