<svg id="Layer_1" data-name="Layer 1" xmlns="http://www.w3.org/2000/svg" xmlns:xlink="http://www.w3.org/1999/xlink" viewBox="0 0 1024 1024"><defs><style>.ig-icon-1{fill:url(#gradient3);}.ig-icon-2{fill:url(#gradient3-2);}.ig-icon-3{fill:url(#gradient3-3);}</style><linearGradient id="gradient3" x1="430.46" y1="430.46" x2="593.55" y2="593.55" gradientUnits="userSpaceOnUse"><stop offset="0" stop-color="#ffd600"/><stop offset="0.5" stop-color="#ff0100"/><stop offset="1" stop-color="#d800b9"/></linearGradient><linearGradient id="gradient3-2" x1="268.16" y1="268.21" x2="755.73" y2="755.78" xlink:href="#gradient3"/><linearGradient id="gradient3-3" x1="86.01" y1="86.02" x2="937.99" y2="938" xlink:href="#gradient3"/></defs><path class="ig-icon-1" d="M512,414h0a98,98,0,1,0,98,98A98,98,0,0,0,512,414Z"/><path class="ig-icon-2" d="M741.1,338.61a97.37,97.37,0,0,0-55.8-55.8,162.47,162.47,0,0,0-54.57-10.12c-31-1.42-40.31-1.73-118.8-1.73s-87.79.28-118.79,1.7a162.78,162.78,0,0,0-54.58,10.13,97.49,97.49,0,0,0-55.79,55.8,162.59,162.59,0,0,0-10.13,54.59c-1.42,31-1.73,40.31-1.73,118.8s.31,87.79,1.73,118.79a162.78,162.78,0,0,0,10.13,54.58,97.34,97.34,0,0,0,55.79,55.79,162.45,162.45,0,0,0,54.6,10.13c31,1.42,40.29,1.71,118.8,1.71s87.81-.29,118.79-1.71a162.4,162.4,0,0,0,54.6-10.13,97.34,97.34,0,0,0,55.79-55.79,162.78,162.78,0,0,0,10.13-54.58c1.42-31,1.71-40.31,1.71-118.79s-.29-87.8-1.71-118.8A162.23,162.23,0,0,0,741.1,338.61ZM512,663h-.11a150.92,150.92,0,1,1,.11,0Zm192.1-307.83A35.28,35.28,0,0,1,669,390.33l-.11.08a35.28,35.28,0,1,1,35.28-35.27Z"/><path class="ig-icon-3" d="M512,0C229.25,0,0,229.21,0,512s229.21,512,512,512,512-229.21,512-512v0C1024,229.25,794.77,0,512,0ZM804.23,633.21a215.74,215.74,0,0,1-13.67,71.37,150.36,150.36,0,0,1-86,86,215.88,215.88,0,0,1-71.35,13.67C601.88,805.67,591.86,806,512,806s-89.85-.35-121.21-1.77a215.93,215.93,0,0,1-71.35-13.67,150.35,150.35,0,0,1-86-86,215.64,215.64,0,0,1-13.68-71.35C218.37,601.88,218,591.86,218,512s.33-89.85,1.77-121.21a216,216,0,0,1,13.65-71.37,150.45,150.45,0,0,1,86-86,216.05,216.05,0,0,1,71.38-13.67C422.19,218.35,432.21,218,512,218s89.86.35,121.21,1.77a216.08,216.08,0,0,1,71.38,13.65,150.38,150.38,0,0,1,86,86,215.53,215.53,0,0,1,13.67,71.37c1.44,31.36,1.78,41.37,1.78,121.21S805.67,601.85,804.23,633.21Z"/></svg>