<svg xmlns="http://www.w3.org/2000/svg" width="30" height="30" viewBox="0 0 30 30"><g><g><g><path fill="#333" d="M30 15c0 8.284-6.716 15-15 15-8.284 0-15-6.716-15-15C0 6.716 6.716 0 15 0c8.284 0 15 6.716 15 15z"/></g><g><g/><g><g><path fill="#fff" d="M19.913 15.446c0 2.717-2.212 4.967-4.967 4.967a4.951 4.951 0 0 1-4.966-4.967c0-2.754 2.25-4.966 4.966-4.966 2.717 0 4.967 2.25 4.967 4.966zm-1.785 0a3.196 3.196 0 0 0-3.182-3.181 3.196 3.196 0 0 0-3.181 3.181 3.196 3.196 0 0 0 3.181 3.182 3.196 3.196 0 0 0 3.182-3.182z"/></g><g><path fill="#fff" d="M20.105 11.49a1.125 1.125 0 1 0 0-2.25 1.125 1.125 0 0 0 0 2.25z"/></g><g><path fill="#fff" d="M24.565 11.486v7.993c0 1.669-.543 3.104-1.59 4.113-1.01.97-2.406 1.513-4.075 1.513h-7.915c-1.59 0-2.988-.504-4.035-1.513-1.087-1.048-1.63-2.483-1.63-4.152v-7.954c0-3.376 2.25-5.626 5.626-5.626h7.993c1.63 0 3.065.543 4.074 1.59 1.009 1.01 1.552 2.406 1.552 4.036zm-1.707 0c0-1.125-.388-2.095-1.048-2.794-.698-.698-1.668-1.047-2.832-1.047h-7.993c-1.164 0-2.173.349-2.833 1.009-.698.698-1.047 1.668-1.047 2.832v7.954c0 1.203.349 2.173 1.047 2.871.699.66 1.669 1.01 2.833 1.01H18.9c1.164 0 2.134-.35 2.833-1.01.698-.66 1.125-1.63 1.125-2.832z"/></g></g></g></g></g></svg>