<?xml version="1.0" encoding="utf-8"?>
<!-- Generator: Adobe Illustrator 23.0.3, SVG Export Plug-In . SVG Version: 6.00 Build 0)  -->
<svg version="1.1" id="logo" xmlns="http://www.w3.org/2000/svg" xmlns:xlink="http://www.w3.org/1999/xlink" x="0px" y="0px"
	 viewBox="0 0 418.1 243.9" style="enable-background:new 0 0 418.1 243.9;" xml:space="preserve">
<g id="typo">
	<path d="M164.9,111.3l-2.8,0.4v18.1h-1.5l-12.4-15.4v13.3l3.4,0.4v1.5h-8V128l2.8-0.4v-15.5l-0.4-0.5l-2-0.2v-1.5h5.9l10.5,13.3
		v-11.4l-3.5-0.4v-1.5h8V111.3z"/>
	<path d="M180.1,127.6c-0.4,0.8-0.9,1.4-1.4,1.7c-0.5,0.3-1.1,0.5-1.9,0.5c-0.8,0-1.5-0.2-2-0.5c-0.5-0.3-0.9-0.7-1.1-1.3
		c-0.7,0.6-1.3,1.1-2,1.4c-0.6,0.3-1.4,0.5-2.4,0.5c-1.2,0-2.2-0.3-2.9-0.9s-1.1-1.5-1.1-2.7c0-0.5,0.1-0.9,0.2-1.4
		c0.1-0.4,0.4-0.9,0.8-1.3c0.4-0.4,1-0.8,1.7-1.2c0.7-0.4,1.6-0.8,2.8-1.2c0.3-0.1,0.7-0.2,1.2-0.4c0.5-0.1,0.9-0.3,1.4-0.4v-0.9
		c0-1.3-0.2-2.2-0.6-2.7s-1-0.8-2-0.8c-0.2,0-0.3,0-0.5,0c-0.1,0-0.3,0-0.5,0l-0.2,1.7c-0.1,0.8-0.3,1.4-0.7,1.7
		c-0.4,0.4-0.8,0.6-1.4,0.6c-0.5,0-0.9-0.1-1.2-0.4c-0.3-0.3-0.5-0.6-0.6-1.1c0.1-1.2,0.8-2.2,1.9-2.9c1.1-0.8,2.6-1.2,4.6-1.2
		c0.9,0,1.7,0.1,2.4,0.3c0.7,0.2,1.2,0.6,1.6,1c0.4,0.5,0.7,1.1,0.9,1.9c0.2,0.8,0.3,1.7,0.3,2.8v6.2c0,0.3,0.1,0.6,0.2,0.8
		c0.1,0.2,0.3,0.3,0.6,0.3c0.2,0,0.4-0.1,0.5-0.2c0.1-0.1,0.3-0.3,0.4-0.4l0.1-0.2L180.1,127.6z M173.4,121.7
		c-0.4,0.1-0.7,0.2-1.1,0.3c-0.3,0.1-0.6,0.2-0.9,0.3c-0.9,0.3-1.5,0.8-1.8,1.3s-0.5,1.1-0.5,1.7c0,0.4,0.1,0.7,0.2,1
		c0.1,0.2,0.2,0.4,0.4,0.6c0.4,0.4,1,0.6,1.7,0.6c0.3,0,0.6-0.1,0.9-0.2c0.3-0.1,0.7-0.3,1.1-0.6V121.7z"/>
	<path d="M189.1,120.6c0.8,0.3,1.4,0.6,2,0.9c0.5,0.3,0.9,0.7,1.2,1.1c0.3,0.4,0.5,0.8,0.6,1.2c0.1,0.4,0.2,0.9,0.2,1.4
		c0,0.7-0.2,1.4-0.5,1.9c-0.3,0.6-0.7,1.1-1.3,1.5c-0.6,0.4-1.2,0.7-2,1c-0.8,0.2-1.7,0.3-2.6,0.3c-1,0-2-0.1-2.7-0.4
		c-0.8-0.2-1.6-0.6-2.4-1.1V125h2.3l0.4,2.6c0.5,0.3,0.9,0.4,1.3,0.6c0.4,0.1,0.8,0.2,1.2,0.2c1,0,1.7-0.2,2.1-0.5
		c0.5-0.3,0.7-0.8,0.7-1.5c0-0.3,0-0.5-0.1-0.7c-0.1-0.2-0.2-0.4-0.5-0.6c-0.2-0.2-0.5-0.4-0.9-0.5c-0.4-0.2-0.8-0.4-1.4-0.6
		l-1.4-0.5c-1.2-0.5-2.1-1.1-2.7-1.8c-0.6-0.7-0.9-1.6-0.9-2.7c0-1.3,0.5-2.4,1.5-3.2s2.5-1.2,4.6-1.2c0.9,0,1.7,0.1,2.4,0.3
		c0.7,0.2,1.4,0.5,2.2,0.8l-0.2,3.3h-2.3l-0.4-2.5c-0.3-0.1-0.5-0.2-0.8-0.3c-0.3-0.1-0.6-0.1-1-0.1c-0.7,0-1.3,0.2-1.7,0.5
		c-0.4,0.3-0.7,0.8-0.7,1.4c0,0.2,0,0.4,0.1,0.6s0.2,0.4,0.5,0.6c0.2,0.2,0.5,0.4,0.9,0.5s0.9,0.4,1.5,0.6L189.1,120.6z"/>
	<path d="M203.2,128.2v1.3h-7.7v-1.3l1.8-0.4c0-0.8,0-1.6,0-2.4s0-1.6,0-2.2v-1.5c0-0.8,0-1.5,0-2.1c0-0.5,0-1.1-0.1-1.7l-2-0.3
		v-1.1l5.8-1.9l0.4,0.3l-0.1,4.3v4.1c0,0.6,0,1.4,0,2.2s0,1.6,0,2.4L203.2,128.2z"/>
	<path d="M210.2,116.5c0.6-0.6,1.3-1.1,2-1.4c0.7-0.3,1.5-0.5,2.5-0.5c0.8,0,1.6,0.2,2.4,0.5c0.7,0.3,1.4,0.8,1.9,1.4
		c0.5,0.6,0.9,1.4,1.2,2.4s0.5,2.1,0.5,3.3c0,1.2-0.2,2.3-0.5,3.2s-0.8,1.8-1.4,2.4s-1.3,1.2-2,1.5c-0.8,0.4-1.6,0.5-2.5,0.5
		c-0.8,0-1.5-0.1-2.1-0.4c-0.6-0.2-1.2-0.6-1.7-1.1v1c0,0.7,0,1.5,0,2.3c0,0.9,0,1.7,0,2.5l2.2,0.4v1.3h-8.1v-1.3l1.8-0.4
		c0-0.8,0-1.6,0-2.5s0-1.7,0-2.4v-8c0-0.4,0-0.8,0-1.1s0-0.6,0-0.9c0-0.3,0-0.5,0-0.8c0-0.2,0-0.5,0-0.8l-2-0.3v-1.1l5.4-1.9
		l0.4,0.3L210.2,116.5z M210.5,126.7c0.4,0.3,0.8,0.5,1.2,0.7c0.4,0.2,0.8,0.3,1.3,0.3c0.9,0,1.7-0.4,2.3-1.3c0.6-0.9,1-2.2,1-4.1
		c0-1.8-0.3-3.2-0.8-4.1c-0.6-0.9-1.3-1.3-2.3-1.3c-0.5,0-0.9,0.1-1.4,0.3c-0.5,0.2-0.9,0.4-1.3,0.7V126.7z"/>
	<path d="M230.2,114.5c1,0,2,0.2,2.9,0.5s1.7,0.9,2.4,1.5c0.7,0.7,1.3,1.5,1.7,2.4c0.4,1,0.6,2,0.6,3.2c0,1.2-0.2,2.3-0.6,3.2
		c-0.4,0.9-0.9,1.7-1.6,2.4c-0.7,0.7-1.5,1.2-2.4,1.5c-0.9,0.4-1.9,0.5-3,0.5c-1.1,0-2.1-0.2-3-0.5c-0.9-0.3-1.7-0.9-2.4-1.5
		c-0.7-0.7-1.2-1.5-1.6-2.4c-0.4-0.9-0.6-2-0.6-3.2c0-1.2,0.2-2.3,0.6-3.2c0.4-0.9,1-1.8,1.7-2.4c0.7-0.7,1.5-1.2,2.4-1.5
		S229.2,114.5,230.2,114.5z M230.2,116c-2.1,0-3.2,2.1-3.2,6.2c0,2.1,0.3,3.7,0.8,4.7s1.3,1.5,2.4,1.5c1.1,0,1.8-0.5,2.4-1.5
		c0.5-1,0.8-2.6,0.8-4.7C233.3,118.1,232.3,116,230.2,116z"/>
	<path d="M246.4,128.2v1.3h-7.6v-1.3l1.8-0.4c0-0.8,0-1.6,0-2.3s0-1.5,0-2.3v-12.5l-2.2-0.3v-1.2l6-1.4l0.4,0.2l-0.1,4.3v10.8
		c0,0.8,0,1.5,0,2.3c0,0.8,0,1.6,0,2.3L246.4,128.2z"/>
	<path d="M256.5,128.2v1.3h-7.7v-1.3l1.8-0.4c0-0.8,0-1.6,0-2.4s0-1.6,0-2.2v-1.5c0-0.8,0-1.5,0-2.1c0-0.5,0-1.1-0.1-1.7l-2-0.3
		v-1.1l5.8-1.9l0.4,0.3l-0.1,4.3v4.1c0,0.6,0,1.4,0,2.2s0,1.6,0,2.4L256.5,128.2z"/>
	<path d="M267.9,127.7c-0.4,0.6-0.9,1.1-1.6,1.5c-0.7,0.4-1.6,0.6-2.7,0.6c-1.2,0-2.2-0.3-2.9-0.9s-1.1-1.5-1.1-2.8
		c0-0.6,0-1.2,0-1.6c0-0.4,0-1,0-1.5V117h-2v-1.6l2.4-0.3l0.8-4.2h2.9v4.2h3.4v1.9h-3.4v8.2c0,0.7,0.1,1.3,0.4,1.6s0.7,0.5,1.1,0.5
		c0.2,0,0.5,0,0.8-0.1c0.3-0.1,0.6-0.3,1-0.6L267.9,127.7z"/>
	<path d="M277.3,128.2v1.3h-7.7v-1.3l1.8-0.4c0-0.8,0-1.6,0-2.4s0-1.6,0-2.2v-1.5c0-0.8,0-1.5,0-2.1c0-0.5,0-1.1-0.1-1.7l-2-0.3
		v-1.1l5.8-1.9l0.5,0.3l-0.1,4.3v4.1c0,0.6,0,1.4,0,2.2s0,1.6,0,2.4L277.3,128.2z"/>
	<path d="M291.8,125.9c-0.4,1.3-1.1,2.3-2.2,3s-2.4,1-3.9,1c-1.1,0-2.1-0.2-3-0.5s-1.7-0.8-2.3-1.5s-1.1-1.4-1.5-2.4
		c-0.3-0.9-0.5-2-0.5-3.3c0-1.2,0.2-2.3,0.6-3.2c0.4-1,1-1.8,1.7-2.4s1.5-1.2,2.4-1.5c0.9-0.3,1.9-0.5,3-0.5c0.8,0,1.5,0.1,2.2,0.3
		c0.7,0.2,1.3,0.5,1.8,0.9c0.5,0.4,0.9,0.8,1.2,1.3c0.3,0.5,0.4,1.1,0.4,1.7c-0.2,1-0.8,1.4-1.8,1.4c-0.6,0-1-0.2-1.4-0.6
		c-0.4-0.4-0.6-1-0.7-1.9l-0.1-1.6c-0.2,0-0.3-0.1-0.5-0.1c-0.1,0-0.3,0-0.5,0c-0.6,0-1.1,0.1-1.6,0.4c-0.5,0.3-0.9,0.6-1.3,1.1
		c-0.4,0.5-0.7,1.1-0.9,1.8c-0.2,0.7-0.3,1.6-0.3,2.5c0,2,0.4,3.4,1.2,4.4s1.9,1.4,3.1,1.4c0.8,0,1.5-0.2,2.1-0.6
		c0.6-0.4,1.1-0.9,1.5-1.7L291.8,125.9z"/>
	<path d="M301.5,128.2v1.3h-7.7v-1.3l1.8-0.4c0-0.8,0-1.6,0-2.4s0-1.6,0-2.2v-1.5c0-0.8,0-1.5,0-2.1c0-0.5,0-1.1-0.1-1.7l-2-0.3
		v-1.1l5.8-1.9l0.5,0.3l-0.1,4.3v4.1c0,0.6,0,1.4,0,2.2s0,1.6,0,2.4L301.5,128.2z"/>
	<path d="M324.8,125.9c-0.4,1.3-1.1,2.3-2.2,3s-2.4,1-3.9,1c-1.1,0-2.1-0.2-3-0.5s-1.7-0.8-2.3-1.5s-1.1-1.4-1.5-2.4
		c-0.3-0.9-0.5-2-0.5-3.3c0-1.2,0.2-2.3,0.6-3.2c0.4-1,1-1.8,1.7-2.4s1.5-1.2,2.4-1.5c0.9-0.3,1.9-0.5,3-0.5c0.8,0,1.5,0.1,2.2,0.3
		c0.7,0.2,1.3,0.5,1.8,0.9c0.5,0.4,0.9,0.8,1.2,1.3c0.3,0.5,0.4,1.1,0.4,1.7c-0.2,1-0.8,1.4-1.8,1.4c-0.6,0-1-0.2-1.4-0.6
		c-0.4-0.4-0.6-1-0.7-1.9l-0.1-1.6c-0.2,0-0.3-0.1-0.5-0.1c-0.1,0-0.3,0-0.5,0c-0.6,0-1.1,0.1-1.6,0.4c-0.5,0.3-0.9,0.6-1.3,1.1
		c-0.4,0.5-0.7,1.1-0.9,1.8c-0.2,0.7-0.3,1.6-0.3,2.5c0,2,0.4,3.4,1.2,4.4s1.9,1.4,3.1,1.4c0.8,0,1.5-0.2,2.1-0.6
		c0.6-0.4,1.1-0.9,1.5-1.7L324.8,125.9z"/>
	<path d="M339.3,124.5l-0.3,5h-12.5v-1.2l8-11.8h-4.9l-0.8,3.3l-2.1-0.1l0.2-4.6H339v1.2l-7.8,11.9h5l0.9-3.6H339.3z"/>
	<circle id="i-1" cx="199.4" cy="110" r="2.1"/>
	<circle id="i-2" cx="252.6" cy="110" r="2.1"/>
	<circle id="i-3" cx="273.3" cy="110" r="2.1"/>
	<circle id="i-4" cx="297.6" cy="110" r="2.1"/>
	<circle id="dot" cx="306.9" cy="127.8" r="2.1"/>
	<polygon id="hacek" points="191.3,108.6 188.4,112.8 186.3,112.8 183.4,108.6 184.3,107.9 187.3,110.7 190.4,107.9 	"/>
</g>
<g id="mark">
	<path d="M133,112.1c1.2,0,2.1-1,2.1-2.1s-1-2.1-2.1-2.1c-1.2,0-2.1,1-2.1,2.1S131.8,112.1,133,112.1z"/>
	<path d="M133,127.2c-1.2,0-2.1,1-2.1,2.1c0,1.2,1,2.1,2.1,2.1c1.2,0,2.1-1,2.1-2.1C135.1,128.1,134.2,127.2,133,127.2z"/>
	<path d="M133,120.7c-1.2,0-2.1,1-2.1,2.1s1,2.1,2.1,2.1c1.2,0,2.1-1,2.1-2.1S134.2,120.7,133,120.7z"/>
	<path d="M133,114.3c-1.2,0-2.1,1-2.1,2.1c0,1.2,1,2.1,2.1,2.1c1.2,0,2.1-1,2.1-2.1C135.1,115.3,134.2,114.3,133,114.3z"/>
	<path d="M126.6,107.9c-1.2,0-2.1,1-2.1,2.1s1,2.1,2.1,2.1c1.2,0,2.1-1,2.1-2.1S127.7,107.9,126.6,107.9z"/>
	<path d="M126.6,127.2c-1.2,0-2.1,1-2.1,2.1c0,1.2,1,2.1,2.1,2.1c1.2,0,2.1-1,2.1-2.1C128.7,128.1,127.7,127.2,126.6,127.2z"/>
	<path d="M126.6,120.7c-1.2,0-2.1,1-2.1,2.1s1,2.1,2.1,2.1c1.2,0,2.1-1,2.1-2.1S127.7,120.7,126.6,120.7z"/>
	<path d="M126.6,114.3c-1.2,0-2.1,1-2.1,2.1c0,1.2,1,2.1,2.1,2.1c1.2,0,2.1-1,2.1-2.1C128.7,115.3,127.7,114.3,126.6,114.3z"/>
	<path d="M120.1,107.9c-1.2,0-2.1,1-2.1,2.1s1,2.1,2.1,2.1c1.2,0,2.1-1,2.1-2.1S121.3,107.9,120.1,107.9z"/>
	<path d="M120.1,127.2c-1.2,0-2.1,1-2.1,2.1c0,1.2,1,2.1,2.1,2.1c1.2,0,2.1-1,2.1-2.1C122.3,128.1,121.3,127.2,120.1,127.2z"/>
	<path d="M120.1,120.7c-1.2,0-2.1,1-2.1,2.1s1,2.1,2.1,2.1c1.2,0,2.1-1,2.1-2.1S121.3,120.7,120.1,120.7z"/>
	<path d="M120.1,114.3c-1.2,0-2.1,1-2.1,2.1c0,1.2,1,2.1,2.1,2.1c1.2,0,2.1-1,2.1-2.1C122.3,115.3,121.3,114.3,120.1,114.3z"/>
	<path d="M113.7,107.9c-1.2,0-2.1,1-2.1,2.1s1,2.1,2.1,2.1c1.2,0,2.1-1,2.1-2.1S114.9,107.9,113.7,107.9z"/>
	<path d="M113.7,127.2c-1.2,0-2.1,1-2.1,2.1c0,1.2,1,2.1,2.1,2.1c1.2,0,2.1-1,2.1-2.1C115.8,128.1,114.9,127.2,113.7,127.2z"/>
	<path d="M113.7,120.7c-1.2,0-2.1,1-2.1,2.1s1,2.1,2.1,2.1c1.2,0,2.1-1,2.1-2.1S114.9,120.7,113.7,120.7z"/>
	<path d="M113.7,114.3c-1.2,0-2.1,1-2.1,2.1c0,1.2,1,2.1,2.1,2.1c1.2,0,2.1-1,2.1-2.1C115.8,115.3,114.9,114.3,113.7,114.3z"/>
	<path d="M107.3,107.9c-1.2,0-2.1,1-2.1,2.1s1,2.1,2.1,2.1c1.2,0,2.1-1,2.1-2.1S108.4,107.9,107.3,107.9z"/>
	<path d="M107.3,127.2c-1.2,0-2.1,1-2.1,2.1c0,1.2,1,2.1,2.1,2.1c1.2,0,2.1-1,2.1-2.1C109.4,128.1,108.4,127.2,107.3,127.2z"/>
	<path d="M107.3,120.7c-1.2,0-2.1,1-2.1,2.1s1,2.1,2.1,2.1c1.2,0,2.1-1,2.1-2.1S108.4,120.7,107.3,120.7z"/>
	<path d="M107.3,114.3c-1.2,0-2.1,1-2.1,2.1c0,1.2,1,2.1,2.1,2.1c1.2,0,2.1-1,2.1-2.1C109.4,115.3,108.4,114.3,107.3,114.3z"/>
	<path d="M100.8,107.9c-1.2,0-2.1,1-2.1,2.1s1,2.1,2.1,2.1c1.2,0,2.1-1,2.1-2.1S102,107.9,100.8,107.9z"/>
	<path d="M100.8,127.2c-1.2,0-2.1,1-2.1,2.1c0,1.2,1,2.1,2.1,2.1c1.2,0,2.1-1,2.1-2.1C103,128.1,102,127.2,100.8,127.2z"/>
	<path d="M100.8,120.7c-1.2,0-2.1,1-2.1,2.1s1,2.1,2.1,2.1c1.2,0,2.1-1,2.1-2.1S102,120.7,100.8,120.7z"/>
	<path d="M100.8,114.3c-1.2,0-2.1,1-2.1,2.1c0,1.2,1,2.1,2.1,2.1c1.2,0,2.1-1,2.1-2.1C103,115.3,102,114.3,100.8,114.3z"/>
	<path d="M94.4,107.9c-1.2,0-2.1,1-2.1,2.1s1,2.1,2.1,2.1c1.2,0,2.1-1,2.1-2.1S95.6,107.9,94.4,107.9z"/>
	<path d="M94.4,127.2c-1.2,0-2.1,1-2.1,2.1c0,1.2,1,2.1,2.1,2.1c1.2,0,2.1-1,2.1-2.1C96.5,128.1,95.6,127.2,94.4,127.2z"/>
	<path d="M94.4,120.7c-1.2,0-2.1,1-2.1,2.1s1,2.1,2.1,2.1c1.2,0,2.1-1,2.1-2.1S95.6,120.7,94.4,120.7z"/>
	<path d="M94.4,114.3c-1.2,0-2.1,1-2.1,2.1c0,1.2,1,2.1,2.1,2.1c1.2,0,2.1-1,2.1-2.1C96.5,115.3,95.6,114.3,94.4,114.3z"/>
	<path d="M88,107.9c-1.2,0-2.1,1-2.1,2.1s1,2.1,2.1,2.1c1.2,0,2.1-1,2.1-2.1S89.1,107.9,88,107.9z"/>
	<path d="M88,127.2c-1.2,0-2.1,1-2.1,2.1c0,1.2,1,2.1,2.1,2.1c1.2,0,2.1-1,2.1-2.1C90.1,128.1,89.1,127.2,88,127.2z"/>
	<path d="M88,120.7c-1.2,0-2.1,1-2.1,2.1s1,2.1,2.1,2.1c1.2,0,2.1-1,2.1-2.1S89.1,120.7,88,120.7z"/>
	<path d="M88,114.3c-1.2,0-2.1,1-2.1,2.1c0,1.2,1,2.1,2.1,2.1c1.2,0,2.1-1,2.1-2.1C90.1,115.3,89.1,114.3,88,114.3z"/>
	<path d="M81.5,107.9c-1.2,0-2.1,1-2.1,2.1s1,2.1,2.1,2.1c1.2,0,2.1-1,2.1-2.1S82.7,107.9,81.5,107.9z"/>
	<path d="M81.5,127.2c-1.2,0-2.1,1-2.1,2.1c0,1.2,1,2.1,2.1,2.1c1.2,0,2.1-1,2.1-2.1C83.7,128.1,82.7,127.2,81.5,127.2z"/>
	<path d="M81.5,120.7c-1.2,0-2.1,1-2.1,2.1s1,2.1,2.1,2.1c1.2,0,2.1-1,2.1-2.1S82.7,120.7,81.5,120.7z"/>
	<path d="M81.5,114.3c-1.2,0-2.1,1-2.1,2.1c0,1.2,1,2.1,2.1,2.1c1.2,0,2.1-1,2.1-2.1C83.7,115.3,82.7,114.3,81.5,114.3z"/>
</g>
</svg>
